<?xml version="1.0" encoding="UTF-8" standalone="no"?>
<!DOCTYPE svg PUBLIC "-//W3C//DTD SVG 1.1//EN"
 "http://www.w3.org/Graphics/SVG/1.1/DTD/svg11.dtd">
<!-- Generated by graphviz version 2.38.0 (20140413.2041)
 -->
<!-- Title: Tree Pages: 1 -->
<svg width="1688pt" height="2262pt"
 viewBox="0.00 0.00 1688.00 2262.00" xmlns="http://www.w3.org/2000/svg" xmlns:xlink="http://www.w3.org/1999/xlink">
<g id="graph0" class="graph" transform="scale(1 1) rotate(0) translate(4 2258)">
<title>Tree</title>
<polygon fill="white" stroke="none" points="-4,4 -4,-2258 1684,-2258 1684,4 -4,4"/>
<!-- 0 -->
<g id="node1" class="node"><title>0</title>
<path fill="#f6d2b8" stroke="black" d="M238,-1162.5C238,-1162.5 12,-1162.5 12,-1162.5 6,-1162.5 0,-1156.5 0,-1150.5 0,-1150.5 0,-1106.5 0,-1106.5 0,-1100.5 6,-1094.5 12,-1094.5 12,-1094.5 238,-1094.5 238,-1094.5 244,-1094.5 250,-1100.5 250,-1106.5 250,-1106.5 250,-1150.5 250,-1150.5 250,-1156.5 244,-1162.5 238,-1162.5"/>
<text text-anchor="start" x="85.5" y="-1147.3" font-family="Helvetica,sans-Serif" font-size="14.00">Store ≤ 28.5</text>
<text text-anchor="start" x="8" y="-1132.3" font-family="Helvetica,sans-Serif" font-size="14.00">squared_error = 308277891273.533</text>
<text text-anchor="start" x="73.5" y="-1117.3" font-family="Helvetica,sans-Serif" font-size="14.00">samples = 4638</text>
<text text-anchor="start" x="57" y="-1102.3" font-family="Helvetica,sans-Serif" font-size="14.00">value = 1043879.132</text>
</g>
<!-- 1 -->
<g id="node2" class="node"><title>1</title>
<path fill="#f4c9aa" stroke="black" d="M524,-1448.5C524,-1448.5 298,-1448.5 298,-1448.5 292,-1448.5 286,-1442.5 286,-1436.5 286,-1436.5 286,-1392.5 286,-1392.5 286,-1386.5 292,-1380.5 298,-1380.5 298,-1380.5 524,-1380.5 524,-1380.5 530,-1380.5 536,-1386.5 536,-1392.5 536,-1392.5 536,-1436.5 536,-1436.5 536,-1442.5 530,-1448.5 524,-1448.5"/>
<text text-anchor="start" x="364" y="-1433.3" font-family="Helvetica,sans-Serif" font-size="14.00">CPI ≤ 131.172</text>
<text text-anchor="start" x="294" y="-1418.3" font-family="Helvetica,sans-Serif" font-size="14.00">squared_error = 326500005608.738</text>
<text text-anchor="start" x="359.5" y="-1403.3" font-family="Helvetica,sans-Serif" font-size="14.00">samples = 2866</text>
<text text-anchor="start" x="343" y="-1388.3" font-family="Helvetica,sans-Serif" font-size="14.00">value = 1206376.808</text>
</g>
<!-- 0&#45;&gt;1 -->
<g id="edge1" class="edge"><title>0&#45;&gt;1</title>
<path fill="none" stroke="black" d="M159.975,-1162.71C212.251,-1215.36 312.261,-1316.07 368.661,-1372.87"/>
<polygon fill="black" stroke="black" points="366.456,-1375.62 375.986,-1380.25 371.423,-1370.68 366.456,-1375.62"/>
<text text-anchor="middle" x="350.986" y="-1376.46" font-family="Helvetica,sans-Serif" font-size="14.00">True</text>
</g>
<!-- 32 -->
<g id="node33" class="node"><title>32</title>
<path fill="#f9e1d0" stroke="black" d="M524,-876.5C524,-876.5 298,-876.5 298,-876.5 292,-876.5 286,-870.5 286,-864.5 286,-864.5 286,-820.5 286,-820.5 286,-814.5 292,-808.5 298,-808.5 298,-808.5 524,-808.5 524,-808.5 530,-808.5 536,-814.5 536,-820.5 536,-820.5 536,-864.5 536,-864.5 536,-870.5 530,-876.5 524,-876.5"/>
<text text-anchor="start" x="364" y="-861.3" font-family="Helvetica,sans-Serif" font-size="14.00">CPI ≤ 138.957</text>
<text text-anchor="start" x="294" y="-846.3" font-family="Helvetica,sans-Serif" font-size="14.00">squared_error = 167023284152.411</text>
<text text-anchor="start" x="359.5" y="-831.3" font-family="Helvetica,sans-Serif" font-size="14.00">samples = 1772</text>
<text text-anchor="start" x="347.5" y="-816.3" font-family="Helvetica,sans-Serif" font-size="14.00">value = 781058.398</text>
</g>
<!-- 0&#45;&gt;32 -->
<g id="edge32" class="edge"><title>0&#45;&gt;32</title>
<path fill="none" stroke="black" d="M159.975,-1094.29C212.251,-1041.64 312.261,-940.927 368.661,-884.13"/>
<polygon fill="black" stroke="black" points="371.423,-886.316 375.986,-876.754 366.456,-881.383 371.423,-886.316"/>
<text text-anchor="middle" x="350.986" y="-873.141" font-family="Helvetica,sans-Serif" font-size="14.00">False</text>
</g>
<!-- 2 -->
<g id="node3" class="node"><title>2</title>
<path fill="#eeae80" stroke="black" d="M810,-1870.5C810,-1870.5 584,-1870.5 584,-1870.5 578,-1870.5 572,-1864.5 572,-1858.5 572,-1858.5 572,-1814.5 572,-1814.5 572,-1808.5 578,-1802.5 584,-1802.5 584,-1802.5 810,-1802.5 810,-1802.5 816,-1802.5 822,-1808.5 822,-1814.5 822,-1814.5 822,-1858.5 822,-1858.5 822,-1864.5 816,-1870.5 810,-1870.5"/>
<text text-anchor="start" x="657.5" y="-1855.3" font-family="Helvetica,sans-Serif" font-size="14.00">Store ≤ 15.0</text>
<text text-anchor="start" x="580" y="-1840.3" font-family="Helvetica,sans-Serif" font-size="14.00">squared_error = 225371756796.676</text>
<text text-anchor="start" x="649.5" y="-1825.3" font-family="Helvetica,sans-Serif" font-size="14.00">samples = 404</text>
<text text-anchor="start" x="629" y="-1810.3" font-family="Helvetica,sans-Serif" font-size="14.00">value = 1671238.553</text>
</g>
<!-- 1&#45;&gt;2 -->
<g id="edge2" class="edge"><title>1&#45;&gt;2</title>
<path fill="none" stroke="black" d="M435,-1448.68C486.462,-1525.14 610.793,-1709.89 667.251,-1793.78"/>
<polygon fill="black" stroke="black" points="664.497,-1795.96 672.983,-1802.3 670.304,-1792.05 664.497,-1795.96"/>
</g>
<!-- 17 -->
<g id="node18" class="node"><title>17</title>
<path fill="#f5cdb0" stroke="black" d="M810,-1448.5C810,-1448.5 584,-1448.5 584,-1448.5 578,-1448.5 572,-1442.5 572,-1436.5 572,-1436.5 572,-1392.5 572,-1392.5 572,-1386.5 578,-1380.5 584,-1380.5 584,-1380.5 810,-1380.5 810,-1380.5 816,-1380.5 822,-1386.5 822,-1392.5 822,-1392.5 822,-1436.5 822,-1436.5 822,-1442.5 816,-1448.5 810,-1448.5"/>
<text text-anchor="start" x="662" y="-1433.3" font-family="Helvetica,sans-Serif" font-size="14.00">Store ≤ 2.5</text>
<text text-anchor="start" x="580" y="-1418.3" font-family="Helvetica,sans-Serif" font-size="14.00">squared_error = 301815577224.627</text>
<text text-anchor="start" x="645.5" y="-1403.3" font-family="Helvetica,sans-Serif" font-size="14.00">samples = 2462</text>
<text text-anchor="start" x="629" y="-1388.3" font-family="Helvetica,sans-Serif" font-size="14.00">value = 1130095.677</text>
</g>
<!-- 1&#45;&gt;17 -->
<g id="edge17" class="edge"><title>1&#45;&gt;17</title>
<path fill="none" stroke="black" d="M536.153,-1414.5C544.536,-1414.5 553.004,-1414.5 561.436,-1414.5"/>
<polygon fill="black" stroke="black" points="561.696,-1418 571.696,-1414.5 561.696,-1411 561.696,-1418"/>
</g>
<!-- 3 -->
<g id="node4" class="node"><title>3</title>
<path fill="#eb9f69" stroke="black" d="M1092,-2076.5C1092,-2076.5 874,-2076.5 874,-2076.5 868,-2076.5 862,-2070.5 862,-2064.5 862,-2064.5 862,-2020.5 862,-2020.5 862,-2014.5 868,-2008.5 874,-2008.5 874,-2008.5 1092,-2008.5 1092,-2008.5 1098,-2008.5 1104,-2014.5 1104,-2020.5 1104,-2020.5 1104,-2064.5 1104,-2064.5 1104,-2070.5 1098,-2076.5 1092,-2076.5"/>
<text text-anchor="start" x="909" y="-2061.3" font-family="Helvetica,sans-Serif" font-size="14.00">Unemployment ≤ 6.694</text>
<text text-anchor="start" x="870" y="-2046.3" font-family="Helvetica,sans-Serif" font-size="14.00">squared_error = 32667052587.183</text>
<text text-anchor="start" x="935.5" y="-2031.3" font-family="Helvetica,sans-Serif" font-size="14.00">samples = 301</text>
<text text-anchor="start" x="915" y="-2016.3" font-family="Helvetica,sans-Serif" font-size="14.00">value = 1930205.129</text>
</g>
<!-- 2&#45;&gt;3 -->
<g id="edge3" class="edge"><title>2&#45;&gt;3</title>
<path fill="none" stroke="black" d="M744.897,-1870.52C794.845,-1906.75 873.848,-1964.05 926.772,-2002.44"/>
<polygon fill="black" stroke="black" points="924.884,-2005.39 935.034,-2008.43 928.994,-1999.73 924.884,-2005.39"/>
</g>
<!-- 10 -->
<g id="node11" class="node"><title>10</title>
<path fill="#f7d9c4" stroke="black" d="M1092,-1870.5C1092,-1870.5 874,-1870.5 874,-1870.5 868,-1870.5 862,-1864.5 862,-1858.5 862,-1858.5 862,-1814.5 862,-1814.5 862,-1808.5 868,-1802.5 874,-1802.5 874,-1802.5 1092,-1802.5 1092,-1802.5 1098,-1802.5 1104,-1808.5 1104,-1814.5 1104,-1814.5 1104,-1858.5 1104,-1858.5 1104,-1864.5 1098,-1870.5 1092,-1870.5"/>
<text text-anchor="start" x="942" y="-1855.3" font-family="Helvetica,sans-Serif" font-size="14.00">Week ≤ 49.5</text>
<text text-anchor="start" x="870" y="-1840.3" font-family="Helvetica,sans-Serif" font-size="14.00">squared_error = 19811505814.898</text>
<text text-anchor="start" x="935.5" y="-1825.3" font-family="Helvetica,sans-Serif" font-size="14.00">samples = 103</text>
<text text-anchor="start" x="919.5" y="-1810.3" font-family="Helvetica,sans-Serif" font-size="14.00">value = 914452.734</text>
</g>
<!-- 2&#45;&gt;10 -->
<g id="edge10" class="edge"><title>2&#45;&gt;10</title>
<path fill="none" stroke="black" d="M822.153,-1836.5C831.902,-1836.5 841.764,-1836.5 851.553,-1836.5"/>
<polygon fill="black" stroke="black" points="851.719,-1840 861.719,-1836.5 851.719,-1833 851.719,-1840"/>
</g>
<!-- 4 -->
<g id="node5" class="node"><title>4</title>
<path fill="#ea975c" stroke="black" d="M1378,-2190.5C1378,-2190.5 1160,-2190.5 1160,-2190.5 1154,-2190.5 1148,-2184.5 1148,-2178.5 1148,-2178.5 1148,-2134.5 1148,-2134.5 1148,-2128.5 1154,-2122.5 1160,-2122.5 1160,-2122.5 1378,-2122.5 1378,-2122.5 1384,-2122.5 1390,-2128.5 1390,-2134.5 1390,-2134.5 1390,-2178.5 1390,-2178.5 1390,-2184.5 1384,-2190.5 1378,-2190.5"/>
<text text-anchor="start" x="1198" y="-2175.3" font-family="Helvetica,sans-Serif" font-size="14.00">Temperature ≤ 29.055</text>
<text text-anchor="start" x="1156" y="-2160.3" font-family="Helvetica,sans-Serif" font-size="14.00">squared_error = 12856069781.232</text>
<text text-anchor="start" x="1225.5" y="-2145.3" font-family="Helvetica,sans-Serif" font-size="14.00">samples = 79</text>
<text text-anchor="start" x="1201" y="-2130.3" font-family="Helvetica,sans-Serif" font-size="14.00">value = 2076161.461</text>
</g>
<!-- 3&#45;&gt;4 -->
<g id="edge4" class="edge"><title>3&#45;&gt;4</title>
<path fill="none" stroke="black" d="M1068.82,-2076.55C1101.84,-2089.8 1139.81,-2105.04 1173.68,-2118.64"/>
<polygon fill="black" stroke="black" points="1172.54,-2121.95 1183.12,-2122.43 1175.15,-2115.46 1172.54,-2121.95"/>
</g>
<!-- 7 -->
<g id="node8" class="node"><title>7</title>
<path fill="#eca26d" stroke="black" d="M1378,-2076.5C1378,-2076.5 1160,-2076.5 1160,-2076.5 1154,-2076.5 1148,-2070.5 1148,-2064.5 1148,-2064.5 1148,-2020.5 1148,-2020.5 1148,-2014.5 1154,-2008.5 1160,-2008.5 1160,-2008.5 1378,-2008.5 1378,-2008.5 1384,-2008.5 1390,-2014.5 1390,-2020.5 1390,-2020.5 1390,-2064.5 1390,-2064.5 1390,-2070.5 1384,-2076.5 1378,-2076.5"/>
<text text-anchor="start" x="1195" y="-2061.3" font-family="Helvetica,sans-Serif" font-size="14.00">Unemployment ≤ 9.982</text>
<text text-anchor="start" x="1156" y="-2046.3" font-family="Helvetica,sans-Serif" font-size="14.00">squared_error = 29438317365.555</text>
<text text-anchor="start" x="1221.5" y="-2031.3" font-family="Helvetica,sans-Serif" font-size="14.00">samples = 222</text>
<text text-anchor="start" x="1201" y="-2016.3" font-family="Helvetica,sans-Serif" font-size="14.00">value = 1878265.714</text>
</g>
<!-- 3&#45;&gt;7 -->
<g id="edge7" class="edge"><title>3&#45;&gt;7</title>
<path fill="none" stroke="black" d="M1104.03,-2042.5C1115.16,-2042.5 1126.47,-2042.5 1137.68,-2042.5"/>
<polygon fill="black" stroke="black" points="1137.94,-2046 1147.94,-2042.5 1137.94,-2039 1137.94,-2046"/>
</g>
<!-- 5 -->
<g id="node6" class="node"><title>5</title>
<path fill="#e58139" stroke="black" d="M1614.5,-2254C1614.5,-2254 1495.5,-2254 1495.5,-2254 1489.5,-2254 1483.5,-2248 1483.5,-2242 1483.5,-2242 1483.5,-2213 1483.5,-2213 1483.5,-2207 1489.5,-2201 1495.5,-2201 1495.5,-2201 1614.5,-2201 1614.5,-2201 1620.5,-2201 1626.5,-2207 1626.5,-2213 1626.5,-2213 1626.5,-2242 1626.5,-2242 1626.5,-2248 1620.5,-2254 1614.5,-2254"/>
<text text-anchor="start" x="1491.5" y="-2238.8" font-family="Helvetica,sans-Serif" font-size="14.00">squared_error = 0.0</text>
<text text-anchor="start" x="1515.5" y="-2223.8" font-family="Helvetica,sans-Serif" font-size="14.00">samples = 2</text>
<text text-anchor="start" x="1491.5" y="-2208.8" font-family="Helvetica,sans-Serif" font-size="14.00">value = 2462779.06</text>
</g>
<!-- 4&#45;&gt;5 -->
<g id="edge5" class="edge"><title>4&#45;&gt;5</title>
<path fill="none" stroke="black" d="M1390.03,-2186.51C1418.22,-2193.55 1447.59,-2200.9 1473.56,-2207.39"/>
<polygon fill="black" stroke="black" points="1472.79,-2210.8 1483.34,-2209.83 1474.48,-2204.01 1472.79,-2210.8"/>
</g>
<!-- 6 -->
<g id="node7" class="node"><title>6</title>
<path fill="#ea985d" stroke="black" d="M1659.5,-2183C1659.5,-2183 1450.5,-2183 1450.5,-2183 1444.5,-2183 1438.5,-2177 1438.5,-2171 1438.5,-2171 1438.5,-2142 1438.5,-2142 1438.5,-2136 1444.5,-2130 1450.5,-2130 1450.5,-2130 1659.5,-2130 1659.5,-2130 1665.5,-2130 1671.5,-2136 1671.5,-2142 1671.5,-2142 1671.5,-2171 1671.5,-2171 1671.5,-2177 1665.5,-2183 1659.5,-2183"/>
<text text-anchor="start" x="1446.5" y="-2167.8" font-family="Helvetica,sans-Serif" font-size="14.00">squared_error = 9206731656.332</text>
<text text-anchor="start" x="1511.5" y="-2152.8" font-family="Helvetica,sans-Serif" font-size="14.00">samples = 77</text>
<text text-anchor="start" x="1487" y="-2137.8" font-family="Helvetica,sans-Serif" font-size="14.00">value = 2066119.446</text>
</g>
<!-- 4&#45;&gt;6 -->
<g id="edge6" class="edge"><title>4&#45;&gt;6</title>
<path fill="none" stroke="black" d="M1390.03,-2156.5C1402.69,-2156.5 1415.59,-2156.5 1428.32,-2156.5"/>
<polygon fill="black" stroke="black" points="1428.48,-2160 1438.48,-2156.5 1428.48,-2153 1428.48,-2160"/>
</g>
<!-- 8 -->
<g id="node9" class="node"><title>8</title>
<path fill="#eca26d" stroke="black" d="M1664,-2112C1664,-2112 1446,-2112 1446,-2112 1440,-2112 1434,-2106 1434,-2100 1434,-2100 1434,-2071 1434,-2071 1434,-2065 1440,-2059 1446,-2059 1446,-2059 1664,-2059 1664,-2059 1670,-2059 1676,-2065 1676,-2071 1676,-2071 1676,-2100 1676,-2100 1676,-2106 1670,-2112 1664,-2112"/>
<text text-anchor="start" x="1442" y="-2096.8" font-family="Helvetica,sans-Serif" font-size="14.00">squared_error = 21764487649.854</text>
<text text-anchor="start" x="1507.5" y="-2081.8" font-family="Helvetica,sans-Serif" font-size="14.00">samples = 220</text>
<text text-anchor="start" x="1487" y="-2066.8" font-family="Helvetica,sans-Serif" font-size="14.00">value = 1886723.298</text>
</g>
<!-- 7&#45;&gt;8 -->
<g id="edge8" class="edge"><title>7&#45;&gt;8</title>
<path fill="none" stroke="black" d="M1390.03,-2060.67C1401.27,-2062.38 1412.7,-2064.11 1424.03,-2065.82"/>
<polygon fill="black" stroke="black" points="1423.53,-2069.29 1433.94,-2067.32 1424.58,-2062.36 1423.53,-2069.29"/>
</g>
<!-- 9 -->
<g id="node10" class="node"><title>9</title>
<path fill="#f7d7c1" stroke="black" d="M1655.5,-2041C1655.5,-2041 1454.5,-2041 1454.5,-2041 1448.5,-2041 1442.5,-2035 1442.5,-2029 1442.5,-2029 1442.5,-2000 1442.5,-2000 1442.5,-1994 1448.5,-1988 1454.5,-1988 1454.5,-1988 1655.5,-1988 1655.5,-1988 1661.5,-1988 1667.5,-1994 1667.5,-2000 1667.5,-2000 1667.5,-2029 1667.5,-2029 1667.5,-2035 1661.5,-2041 1655.5,-2041"/>
<text text-anchor="start" x="1450.5" y="-2025.8" font-family="Helvetica,sans-Serif" font-size="14.00">squared_error = 169363675.926</text>
<text text-anchor="start" x="1515.5" y="-2010.8" font-family="Helvetica,sans-Serif" font-size="14.00">samples = 2</text>
<text text-anchor="start" x="1495.5" y="-1995.8" font-family="Helvetica,sans-Serif" font-size="14.00">value = 947931.45</text>
</g>
<!-- 7&#45;&gt;9 -->
<g id="edge9" class="edge"><title>7&#45;&gt;9</title>
<path fill="none" stroke="black" d="M1390.03,-2030.67C1403.92,-2029.3 1418.09,-2027.9 1432.01,-2026.53"/>
<polygon fill="black" stroke="black" points="1432.47,-2030 1442.08,-2025.53 1431.79,-2023.03 1432.47,-2030"/>
</g>
<!-- 11 -->
<g id="node12" class="node"><title>11</title>
<path fill="#f7dbc6" stroke="black" d="M1378,-1913.5C1378,-1913.5 1160,-1913.5 1160,-1913.5 1154,-1913.5 1148,-1907.5 1148,-1901.5 1148,-1901.5 1148,-1857.5 1148,-1857.5 1148,-1851.5 1154,-1845.5 1160,-1845.5 1160,-1845.5 1378,-1845.5 1378,-1845.5 1384,-1845.5 1390,-1851.5 1390,-1857.5 1390,-1857.5 1390,-1901.5 1390,-1901.5 1390,-1907.5 1384,-1913.5 1378,-1913.5"/>
<text text-anchor="start" x="1222" y="-1898.3" font-family="Helvetica,sans-Serif" font-size="14.00">CPI ≤ 129.347</text>
<text text-anchor="start" x="1156" y="-1883.3" font-family="Helvetica,sans-Serif" font-size="14.00">squared_error = 10359813189.435</text>
<text text-anchor="start" x="1225.5" y="-1868.3" font-family="Helvetica,sans-Serif" font-size="14.00">samples = 95</text>
<text text-anchor="start" x="1209.5" y="-1853.3" font-family="Helvetica,sans-Serif" font-size="14.00">value = 891260.99</text>
</g>
<!-- 10&#45;&gt;11 -->
<g id="edge11" class="edge"><title>10&#45;&gt;11</title>
<path fill="none" stroke="black" d="M1104.03,-1854.67C1115.27,-1856.38 1126.7,-1858.11 1138.03,-1859.82"/>
<polygon fill="black" stroke="black" points="1137.53,-1863.29 1147.94,-1861.32 1138.58,-1856.36 1137.53,-1863.29"/>
</g>
<!-- 14 -->
<g id="node15" class="node"><title>14</title>
<path fill="#f4caab" stroke="black" d="M1373.5,-1827.5C1373.5,-1827.5 1164.5,-1827.5 1164.5,-1827.5 1158.5,-1827.5 1152.5,-1821.5 1152.5,-1815.5 1152.5,-1815.5 1152.5,-1771.5 1152.5,-1771.5 1152.5,-1765.5 1158.5,-1759.5 1164.5,-1759.5 1164.5,-1759.5 1373.5,-1759.5 1373.5,-1759.5 1379.5,-1759.5 1385.5,-1765.5 1385.5,-1771.5 1385.5,-1771.5 1385.5,-1815.5 1385.5,-1815.5 1385.5,-1821.5 1379.5,-1827.5 1373.5,-1827.5"/>
<text text-anchor="start" x="1210" y="-1812.3" font-family="Helvetica,sans-Serif" font-size="14.00">Holiday_Flag ≤ 0.5</text>
<text text-anchor="start" x="1160.5" y="-1797.3" font-family="Helvetica,sans-Serif" font-size="14.00">squared_error = 49817063235.43</text>
<text text-anchor="start" x="1229.5" y="-1782.3" font-family="Helvetica,sans-Serif" font-size="14.00">samples = 8</text>
<text text-anchor="start" x="1201" y="-1767.3" font-family="Helvetica,sans-Serif" font-size="14.00">value = 1189854.696</text>
</g>
<!-- 10&#45;&gt;14 -->
<g id="edge14" class="edge"><title>10&#45;&gt;14</title>
<path fill="none" stroke="black" d="M1104.03,-1818.33C1116.69,-1816.41 1129.59,-1814.46 1142.32,-1812.53"/>
<polygon fill="black" stroke="black" points="1143.11,-1815.95 1152.48,-1810.99 1142.06,-1809.03 1143.11,-1815.95"/>
</g>
<!-- 12 -->
<g id="node13" class="node"><title>12</title>
<path fill="#f8ddca" stroke="black" d="M1659.5,-1970C1659.5,-1970 1450.5,-1970 1450.5,-1970 1444.5,-1970 1438.5,-1964 1438.5,-1958 1438.5,-1958 1438.5,-1929 1438.5,-1929 1438.5,-1923 1444.5,-1917 1450.5,-1917 1450.5,-1917 1659.5,-1917 1659.5,-1917 1665.5,-1917 1671.5,-1923 1671.5,-1929 1671.5,-1929 1671.5,-1958 1671.5,-1958 1671.5,-1964 1665.5,-1970 1659.5,-1970"/>
<text text-anchor="start" x="1446.5" y="-1954.8" font-family="Helvetica,sans-Serif" font-size="14.00">squared_error = 5733087214.881</text>
<text text-anchor="start" x="1511.5" y="-1939.8" font-family="Helvetica,sans-Serif" font-size="14.00">samples = 56</text>
<text text-anchor="start" x="1491.5" y="-1924.8" font-family="Helvetica,sans-Serif" font-size="14.00">value = 848630.509</text>
</g>
<!-- 11&#45;&gt;12 -->
<g id="edge12" class="edge"><title>11&#45;&gt;12</title>
<path fill="none" stroke="black" d="M1390.03,-1906.55C1402.82,-1909.43 1415.85,-1912.37 1428.69,-1915.26"/>
<polygon fill="black" stroke="black" points="1427.95,-1918.68 1438.48,-1917.47 1429.49,-1911.85 1427.95,-1918.68"/>
</g>
<!-- 13 -->
<g id="node14" class="node"><title>13</title>
<path fill="#f7d7c0" stroke="black" d="M1664,-1899C1664,-1899 1446,-1899 1446,-1899 1440,-1899 1434,-1893 1434,-1887 1434,-1887 1434,-1858 1434,-1858 1434,-1852 1440,-1846 1446,-1846 1446,-1846 1664,-1846 1664,-1846 1670,-1846 1676,-1852 1676,-1858 1676,-1858 1676,-1887 1676,-1887 1676,-1893 1670,-1899 1664,-1899"/>
<text text-anchor="start" x="1442" y="-1883.8" font-family="Helvetica,sans-Serif" font-size="14.00">squared_error = 10646746368.611</text>
<text text-anchor="start" x="1511.5" y="-1868.8" font-family="Helvetica,sans-Serif" font-size="14.00">samples = 39</text>
<text text-anchor="start" x="1491.5" y="-1853.8" font-family="Helvetica,sans-Serif" font-size="14.00">value = 952473.989</text>
</g>
<!-- 11&#45;&gt;13 -->
<g id="edge13" class="edge"><title>11&#45;&gt;13</title>
<path fill="none" stroke="black" d="M1390.03,-1876.54C1401.16,-1876.27 1412.47,-1875.99 1423.68,-1875.71"/>
<polygon fill="black" stroke="black" points="1424.03,-1879.2 1433.94,-1875.46 1423.86,-1872.21 1424.03,-1879.2"/>
</g>
<!-- 15 -->
<g id="node16" class="node"><title>15</title>
<path fill="#f3c5a4" stroke="black" d="M1659.5,-1828C1659.5,-1828 1450.5,-1828 1450.5,-1828 1444.5,-1828 1438.5,-1822 1438.5,-1816 1438.5,-1816 1438.5,-1787 1438.5,-1787 1438.5,-1781 1444.5,-1775 1450.5,-1775 1450.5,-1775 1659.5,-1775 1659.5,-1775 1665.5,-1775 1671.5,-1781 1671.5,-1787 1671.5,-1787 1671.5,-1816 1671.5,-1816 1671.5,-1822 1665.5,-1828 1659.5,-1828"/>
<text text-anchor="start" x="1446.5" y="-1812.8" font-family="Helvetica,sans-Serif" font-size="14.00">squared_error = 6826472578.197</text>
<text text-anchor="start" x="1515.5" y="-1797.8" font-family="Helvetica,sans-Serif" font-size="14.00">samples = 7</text>
<text text-anchor="start" x="1487" y="-1782.8" font-family="Helvetica,sans-Serif" font-size="14.00">value = 1268996.431</text>
</g>
<!-- 14&#45;&gt;15 -->
<g id="edge15" class="edge"><title>14&#45;&gt;15</title>
<path fill="none" stroke="black" d="M1385.51,-1796.75C1399.48,-1797.15 1413.8,-1797.55 1427.9,-1797.95"/>
<polygon fill="black" stroke="black" points="1428.03,-1801.45 1438.13,-1798.24 1428.23,-1794.46 1428.03,-1801.45"/>
</g>
<!-- 16 -->
<g id="node17" class="node"><title>16</title>
<path fill="#fae9dd" stroke="black" d="M1625,-1757C1625,-1757 1485,-1757 1485,-1757 1479,-1757 1473,-1751 1473,-1745 1473,-1745 1473,-1716 1473,-1716 1473,-1710 1479,-1704 1485,-1704 1485,-1704 1625,-1704 1625,-1704 1631,-1704 1637,-1710 1637,-1716 1637,-1716 1637,-1745 1637,-1745 1637,-1751 1631,-1757 1625,-1757"/>
<text text-anchor="start" x="1481" y="-1741.8" font-family="Helvetica,sans-Serif" font-size="14.00">squared_error = &#45;0.001</text>
<text text-anchor="start" x="1515.5" y="-1726.8" font-family="Helvetica,sans-Serif" font-size="14.00">samples = 1</text>
<text text-anchor="start" x="1495.5" y="-1711.8" font-family="Helvetica,sans-Serif" font-size="14.00">value = 635862.55</text>
</g>
<!-- 14&#45;&gt;16 -->
<g id="edge16" class="edge"><title>14&#45;&gt;16</title>
<path fill="none" stroke="black" d="M1385.51,-1767.88C1411.29,-1762.16 1438.28,-1756.17 1462.91,-1750.71"/>
<polygon fill="black" stroke="black" points="1463.94,-1754.06 1472.95,-1748.48 1462.43,-1747.23 1463.94,-1754.06"/>
</g>
<!-- 18 -->
<g id="node19" class="node"><title>18</title>
<path fill="#eeab7a" stroke="black" d="M1092,-1516.5C1092,-1516.5 874,-1516.5 874,-1516.5 868,-1516.5 862,-1510.5 862,-1504.5 862,-1504.5 862,-1460.5 862,-1460.5 862,-1454.5 868,-1448.5 874,-1448.5 874,-1448.5 1092,-1448.5 1092,-1448.5 1098,-1448.5 1104,-1454.5 1104,-1460.5 1104,-1460.5 1104,-1504.5 1104,-1504.5 1104,-1510.5 1098,-1516.5 1092,-1516.5"/>
<text text-anchor="start" x="948" y="-1501.3" font-family="Helvetica,sans-Serif" font-size="14.00">Store ≤ 1.5</text>
<text text-anchor="start" x="870" y="-1486.3" font-family="Helvetica,sans-Serif" font-size="14.00">squared_error = 56171351185.295</text>
<text text-anchor="start" x="935.5" y="-1471.3" font-family="Helvetica,sans-Serif" font-size="14.00">samples = 227</text>
<text text-anchor="start" x="915" y="-1456.3" font-family="Helvetica,sans-Serif" font-size="14.00">value = 1731795.245</text>
</g>
<!-- 17&#45;&gt;18 -->
<g id="edge18" class="edge"><title>17&#45;&gt;18</title>
<path fill="none" stroke="black" d="M822.153,-1444.23C832.004,-1446.59 841.972,-1448.97 851.862,-1451.34"/>
<polygon fill="black" stroke="black" points="851.179,-1454.78 861.719,-1453.7 852.809,-1447.97 851.179,-1454.78"/>
</g>
<!-- 25 -->
<g id="node26" class="node"><title>25</title>
<path fill="#f5d0b6" stroke="black" d="M1096,-1381.5C1096,-1381.5 870,-1381.5 870,-1381.5 864,-1381.5 858,-1375.5 858,-1369.5 858,-1369.5 858,-1325.5 858,-1325.5 858,-1319.5 864,-1313.5 870,-1313.5 870,-1313.5 1096,-1313.5 1096,-1313.5 1102,-1313.5 1108,-1319.5 1108,-1325.5 1108,-1325.5 1108,-1369.5 1108,-1369.5 1108,-1375.5 1102,-1381.5 1096,-1381.5"/>
<text text-anchor="start" x="948" y="-1366.3" font-family="Helvetica,sans-Serif" font-size="14.00">Store ≤ 9.5</text>
<text text-anchor="start" x="866" y="-1351.3" font-family="Helvetica,sans-Serif" font-size="14.00">squared_error = 286258780901.607</text>
<text text-anchor="start" x="931.5" y="-1336.3" font-family="Helvetica,sans-Serif" font-size="14.00">samples = 2235</text>
<text text-anchor="start" x="915" y="-1321.3" font-family="Helvetica,sans-Serif" font-size="14.00">value = 1068983.461</text>
</g>
<!-- 17&#45;&gt;25 -->
<g id="edge25" class="edge"><title>17&#45;&gt;25</title>
<path fill="none" stroke="black" d="M822.153,-1385.21C830.628,-1383.21 839.19,-1381.19 847.714,-1379.18"/>
<polygon fill="black" stroke="black" points="848.767,-1382.53 857.696,-1376.83 847.159,-1375.72 848.767,-1382.53"/>
</g>
<!-- 19 -->
<g id="node20" class="node"><title>19</title>
<path fill="#f0b489" stroke="black" d="M1378,-1622.5C1378,-1622.5 1160,-1622.5 1160,-1622.5 1154,-1622.5 1148,-1616.5 1148,-1610.5 1148,-1610.5 1148,-1566.5 1148,-1566.5 1148,-1560.5 1154,-1554.5 1160,-1554.5 1160,-1554.5 1378,-1554.5 1378,-1554.5 1384,-1554.5 1390,-1560.5 1390,-1566.5 1390,-1566.5 1390,-1610.5 1390,-1610.5 1390,-1616.5 1384,-1622.5 1378,-1622.5"/>
<text text-anchor="start" x="1228" y="-1607.3" font-family="Helvetica,sans-Serif" font-size="14.00">Week ≤ 46.5</text>
<text text-anchor="start" x="1156" y="-1592.3" font-family="Helvetica,sans-Serif" font-size="14.00">squared_error = 34209550033.106</text>
<text text-anchor="start" x="1221.5" y="-1577.3" font-family="Helvetica,sans-Serif" font-size="14.00">samples = 115</text>
<text text-anchor="start" x="1201" y="-1562.3" font-family="Helvetica,sans-Serif" font-size="14.00">value = 1569628.497</text>
</g>
<!-- 18&#45;&gt;19 -->
<g id="edge19" class="edge"><title>18&#45;&gt;19</title>
<path fill="none" stroke="black" d="M1075.42,-1516.62C1104.69,-1527.54 1137.25,-1539.7 1167.14,-1550.86"/>
<polygon fill="black" stroke="black" points="1166.16,-1554.22 1176.75,-1554.44 1168.6,-1547.67 1166.16,-1554.22"/>
</g>
<!-- 22 -->
<g id="node23" class="node"><title>22</title>
<path fill="#eca16c" stroke="black" d="M1378,-1516.5C1378,-1516.5 1160,-1516.5 1160,-1516.5 1154,-1516.5 1148,-1510.5 1148,-1504.5 1148,-1504.5 1148,-1460.5 1148,-1460.5 1148,-1454.5 1154,-1448.5 1160,-1448.5 1160,-1448.5 1378,-1448.5 1378,-1448.5 1384,-1448.5 1390,-1454.5 1390,-1460.5 1390,-1460.5 1390,-1504.5 1390,-1504.5 1390,-1510.5 1384,-1516.5 1378,-1516.5"/>
<text text-anchor="start" x="1210" y="-1501.3" font-family="Helvetica,sans-Serif" font-size="14.00">Holiday_Flag ≤ 0.5</text>
<text text-anchor="start" x="1156" y="-1486.3" font-family="Helvetica,sans-Serif" font-size="14.00">squared_error = 23993201566.545</text>
<text text-anchor="start" x="1221.5" y="-1471.3" font-family="Helvetica,sans-Serif" font-size="14.00">samples = 112</text>
<text text-anchor="start" x="1201" y="-1456.3" font-family="Helvetica,sans-Serif" font-size="14.00">value = 1898305.746</text>
</g>
<!-- 18&#45;&gt;22 -->
<g id="edge22" class="edge"><title>18&#45;&gt;22</title>
<path fill="none" stroke="black" d="M1104.03,-1482.5C1115.16,-1482.5 1126.47,-1482.5 1137.68,-1482.5"/>
<polygon fill="black" stroke="black" points="1137.94,-1486 1147.94,-1482.5 1137.94,-1479 1137.94,-1486"/>
</g>
<!-- 20 -->
<g id="node21" class="node"><title>20</title>
<path fill="#f0b68c" stroke="black" d="M1664,-1686C1664,-1686 1446,-1686 1446,-1686 1440,-1686 1434,-1680 1434,-1674 1434,-1674 1434,-1645 1434,-1645 1434,-1639 1440,-1633 1446,-1633 1446,-1633 1664,-1633 1664,-1633 1670,-1633 1676,-1639 1676,-1645 1676,-1645 1676,-1674 1676,-1674 1676,-1680 1670,-1686 1664,-1686"/>
<text text-anchor="start" x="1442" y="-1670.8" font-family="Helvetica,sans-Serif" font-size="14.00">squared_error = 12338746245.972</text>
<text text-anchor="start" x="1507.5" y="-1655.8" font-family="Helvetica,sans-Serif" font-size="14.00">samples = 101</text>
<text text-anchor="start" x="1487" y="-1640.8" font-family="Helvetica,sans-Serif" font-size="14.00">value = 1531089.989</text>
</g>
<!-- 19&#45;&gt;20 -->
<g id="edge20" class="edge"><title>19&#45;&gt;20</title>
<path fill="none" stroke="black" d="M1390.03,-1618.51C1405.95,-1622.49 1422.25,-1626.56 1438.1,-1630.53"/>
<polygon fill="black" stroke="black" points="1437.35,-1633.95 1447.9,-1632.98 1439.05,-1627.16 1437.35,-1633.95"/>
</g>
<!-- 21 -->
<g id="node22" class="node"><title>21</title>
<path fill="#eca470" stroke="black" d="M1668,-1615C1668,-1615 1442,-1615 1442,-1615 1436,-1615 1430,-1609 1430,-1603 1430,-1603 1430,-1574 1430,-1574 1430,-1568 1436,-1562 1442,-1562 1442,-1562 1668,-1562 1668,-1562 1674,-1562 1680,-1568 1680,-1574 1680,-1574 1680,-1603 1680,-1603 1680,-1609 1674,-1615 1668,-1615"/>
<text text-anchor="start" x="1438" y="-1599.8" font-family="Helvetica,sans-Serif" font-size="14.00">squared_error = 103977540542.899</text>
<text text-anchor="start" x="1511.5" y="-1584.8" font-family="Helvetica,sans-Serif" font-size="14.00">samples = 14</text>
<text text-anchor="start" x="1487" y="-1569.8" font-family="Helvetica,sans-Serif" font-size="14.00">value = 1847656.301</text>
</g>
<!-- 19&#45;&gt;21 -->
<g id="edge21" class="edge"><title>19&#45;&gt;21</title>
<path fill="none" stroke="black" d="M1390.03,-1588.5C1399.81,-1588.5 1409.72,-1588.5 1419.59,-1588.5"/>
<polygon fill="black" stroke="black" points="1419.85,-1592 1429.85,-1588.5 1419.85,-1585 1419.85,-1592"/>
</g>
<!-- 23 -->
<g id="node24" class="node"><title>23</title>
<path fill="#eca36e" stroke="black" d="M1664,-1544C1664,-1544 1446,-1544 1446,-1544 1440,-1544 1434,-1538 1434,-1532 1434,-1532 1434,-1503 1434,-1503 1434,-1497 1440,-1491 1446,-1491 1446,-1491 1664,-1491 1664,-1491 1670,-1491 1676,-1497 1676,-1503 1676,-1503 1676,-1532 1676,-1532 1676,-1538 1670,-1544 1664,-1544"/>
<text text-anchor="start" x="1442" y="-1528.8" font-family="Helvetica,sans-Serif" font-size="14.00">squared_error = 10909972859.822</text>
<text text-anchor="start" x="1507.5" y="-1513.8" font-family="Helvetica,sans-Serif" font-size="14.00">samples = 103</text>
<text text-anchor="start" x="1487" y="-1498.8" font-family="Helvetica,sans-Serif" font-size="14.00">value = 1873378.374</text>
</g>
<!-- 22&#45;&gt;23 -->
<g id="edge23" class="edge"><title>22&#45;&gt;23</title>
<path fill="none" stroke="black" d="M1390.03,-1497.29C1401.16,-1498.66 1412.47,-1500.06 1423.68,-1501.44"/>
<polygon fill="black" stroke="black" points="1423.59,-1504.95 1433.94,-1502.7 1424.45,-1498.01 1423.59,-1504.95"/>
</g>
<!-- 24 -->
<g id="node25" class="node"><title>24</title>
<path fill="#e89152" stroke="black" d="M1664,-1473C1664,-1473 1446,-1473 1446,-1473 1440,-1473 1434,-1467 1434,-1461 1434,-1461 1434,-1432 1434,-1432 1434,-1426 1440,-1420 1446,-1420 1446,-1420 1664,-1420 1664,-1420 1670,-1420 1676,-1426 1676,-1432 1676,-1432 1676,-1461 1676,-1461 1676,-1467 1670,-1473 1664,-1473"/>
<text text-anchor="start" x="1442" y="-1457.8" font-family="Helvetica,sans-Serif" font-size="14.00">squared_error = 85227575897.148</text>
<text text-anchor="start" x="1515.5" y="-1442.8" font-family="Helvetica,sans-Serif" font-size="14.00">samples = 9</text>
<text text-anchor="start" x="1487" y="-1427.8" font-family="Helvetica,sans-Serif" font-size="14.00">value = 2183585.663</text>
</g>
<!-- 22&#45;&gt;24 -->
<g id="edge24" class="edge"><title>22&#45;&gt;24</title>
<path fill="none" stroke="black" d="M1390.03,-1467.28C1401.16,-1465.87 1412.47,-1464.44 1423.68,-1463.02"/>
<polygon fill="black" stroke="black" points="1424.46,-1466.45 1433.94,-1461.72 1423.58,-1459.5 1424.46,-1466.45"/>
</g>
<!-- 26 -->
<g id="node27" class="node"><title>26</title>
<path fill="#fae5d6" stroke="black" d="M1382,-1381.5C1382,-1381.5 1156,-1381.5 1156,-1381.5 1150,-1381.5 1144,-1375.5 1144,-1369.5 1144,-1369.5 1144,-1325.5 1144,-1325.5 1144,-1319.5 1150,-1313.5 1156,-1313.5 1156,-1313.5 1382,-1313.5 1382,-1313.5 1388,-1313.5 1394,-1319.5 1394,-1325.5 1394,-1325.5 1394,-1369.5 1394,-1369.5 1394,-1375.5 1388,-1381.5 1382,-1381.5"/>
<text text-anchor="start" x="1234" y="-1366.3" font-family="Helvetica,sans-Serif" font-size="14.00">Store ≤ 5.5</text>
<text text-anchor="start" x="1152" y="-1351.3" font-family="Helvetica,sans-Serif" font-size="14.00">squared_error = 179094546635.515</text>
<text text-anchor="start" x="1221.5" y="-1336.3" font-family="Helvetica,sans-Serif" font-size="14.00">samples = 670</text>
<text text-anchor="start" x="1205.5" y="-1321.3" font-family="Helvetica,sans-Serif" font-size="14.00">value = 710201.266</text>
</g>
<!-- 25&#45;&gt;26 -->
<g id="edge26" class="edge"><title>25&#45;&gt;26</title>
<path fill="none" stroke="black" d="M1108.15,-1347.5C1116.54,-1347.5 1125,-1347.5 1133.44,-1347.5"/>
<polygon fill="black" stroke="black" points="1133.7,-1351 1143.7,-1347.5 1133.7,-1344 1133.7,-1351"/>
</g>
<!-- 29 -->
<g id="node30" class="node"><title>29</title>
<path fill="#f4c8a8" stroke="black" d="M1382,-1267.5C1382,-1267.5 1156,-1267.5 1156,-1267.5 1150,-1267.5 1144,-1261.5 1144,-1255.5 1144,-1255.5 1144,-1211.5 1144,-1211.5 1144,-1205.5 1150,-1199.5 1156,-1199.5 1156,-1199.5 1382,-1199.5 1382,-1199.5 1388,-1199.5 1394,-1205.5 1394,-1211.5 1394,-1211.5 1394,-1255.5 1394,-1255.5 1394,-1261.5 1388,-1267.5 1382,-1267.5"/>
<text text-anchor="start" x="1229.5" y="-1252.3" font-family="Helvetica,sans-Serif" font-size="14.00">Store ≤ 14.5</text>
<text text-anchor="start" x="1152" y="-1237.3" font-family="Helvetica,sans-Serif" font-size="14.00">squared_error = 253435463240.742</text>
<text text-anchor="start" x="1217.5" y="-1222.3" font-family="Helvetica,sans-Serif" font-size="14.00">samples = 1565</text>
<text text-anchor="start" x="1201" y="-1207.3" font-family="Helvetica,sans-Serif" font-size="14.00">value = 1222583.507</text>
</g>
<!-- 25&#45;&gt;29 -->
<g id="edge29" class="edge"><title>25&#45;&gt;29</title>
<path fill="none" stroke="black" d="M1068.82,-1313.45C1101.84,-1300.2 1139.81,-1284.96 1173.68,-1271.36"/>
<polygon fill="black" stroke="black" points="1175.15,-1274.54 1183.12,-1267.57 1172.54,-1268.05 1175.15,-1274.54"/>
</g>
<!-- 27 -->
<g id="node28" class="node"><title>27</title>
<path fill="#fef9f5" stroke="black" d="M1659.5,-1402C1659.5,-1402 1450.5,-1402 1450.5,-1402 1444.5,-1402 1438.5,-1396 1438.5,-1390 1438.5,-1390 1438.5,-1361 1438.5,-1361 1438.5,-1355 1444.5,-1349 1450.5,-1349 1450.5,-1349 1659.5,-1349 1659.5,-1349 1665.5,-1349 1671.5,-1355 1671.5,-1361 1671.5,-1361 1671.5,-1390 1671.5,-1390 1671.5,-1396 1665.5,-1402 1659.5,-1402"/>
<text text-anchor="start" x="1446.5" y="-1386.8" font-family="Helvetica,sans-Serif" font-size="14.00">squared_error = 3477469935.572</text>
<text text-anchor="start" x="1507.5" y="-1371.8" font-family="Helvetica,sans-Serif" font-size="14.00">samples = 218</text>
<text text-anchor="start" x="1491.5" y="-1356.8" font-family="Helvetica,sans-Serif" font-size="14.00">value = 364587.623</text>
</g>
<!-- 26&#45;&gt;27 -->
<g id="edge27" class="edge"><title>26&#45;&gt;27</title>
<path fill="none" stroke="black" d="M1394.15,-1359.74C1405.35,-1360.84 1416.7,-1361.96 1427.92,-1363.07"/>
<polygon fill="black" stroke="black" points="1427.88,-1366.58 1438.17,-1364.08 1428.56,-1359.62 1427.88,-1366.58"/>
</g>
<!-- 28 -->
<g id="node29" class="node"><title>28</title>
<path fill="#f8dbc7" stroke="black" d="M1668,-1331C1668,-1331 1442,-1331 1442,-1331 1436,-1331 1430,-1325 1430,-1319 1430,-1319 1430,-1290 1430,-1290 1430,-1284 1436,-1278 1442,-1278 1442,-1278 1668,-1278 1668,-1278 1674,-1278 1680,-1284 1680,-1290 1680,-1290 1680,-1319 1680,-1319 1680,-1325 1674,-1331 1668,-1331"/>
<text text-anchor="start" x="1438" y="-1315.8" font-family="Helvetica,sans-Serif" font-size="14.00">squared_error = 178399082907.303</text>
<text text-anchor="start" x="1507.5" y="-1300.8" font-family="Helvetica,sans-Serif" font-size="14.00">samples = 452</text>
<text text-anchor="start" x="1491.5" y="-1285.8" font-family="Helvetica,sans-Serif" font-size="14.00">value = 876891.031</text>
</g>
<!-- 26&#45;&gt;28 -->
<g id="edge28" class="edge"><title>26&#45;&gt;28</title>
<path fill="none" stroke="black" d="M1394.15,-1328.7C1402.63,-1327.42 1411.19,-1326.12 1419.71,-1324.83"/>
<polygon fill="black" stroke="black" points="1420.33,-1328.28 1429.7,-1323.32 1419.28,-1321.36 1420.33,-1328.28"/>
</g>
<!-- 30 -->
<g id="node31" class="node"><title>30</title>
<path fill="#efb082" stroke="black" d="M1668,-1260C1668,-1260 1442,-1260 1442,-1260 1436,-1260 1430,-1254 1430,-1248 1430,-1248 1430,-1219 1430,-1219 1430,-1213 1436,-1207 1442,-1207 1442,-1207 1668,-1207 1668,-1207 1674,-1207 1680,-1213 1680,-1219 1680,-1219 1680,-1248 1680,-1248 1680,-1254 1674,-1260 1668,-1260"/>
<text text-anchor="start" x="1438" y="-1244.8" font-family="Helvetica,sans-Serif" font-size="14.00">squared_error = 144628591931.156</text>
<text text-anchor="start" x="1507.5" y="-1229.8" font-family="Helvetica,sans-Serif" font-size="14.00">samples = 251</text>
<text text-anchor="start" x="1487" y="-1214.8" font-family="Helvetica,sans-Serif" font-size="14.00">value = 1645346.122</text>
</g>
<!-- 29&#45;&gt;30 -->
<g id="edge30" class="edge"><title>29&#45;&gt;30</title>
<path fill="none" stroke="black" d="M1394.15,-1233.5C1402.54,-1233.5 1411,-1233.5 1419.44,-1233.5"/>
<polygon fill="black" stroke="black" points="1419.7,-1237 1429.7,-1233.5 1419.7,-1230 1419.7,-1237"/>
</g>
<!-- 31 -->
<g id="node32" class="node"><title>31</title>
<path fill="#f5ccaf" stroke="black" d="M1668,-1189C1668,-1189 1442,-1189 1442,-1189 1436,-1189 1430,-1183 1430,-1177 1430,-1177 1430,-1148 1430,-1148 1430,-1142 1436,-1136 1442,-1136 1442,-1136 1668,-1136 1668,-1136 1674,-1136 1680,-1142 1680,-1148 1680,-1148 1680,-1177 1680,-1177 1680,-1183 1674,-1189 1668,-1189"/>
<text text-anchor="start" x="1438" y="-1173.8" font-family="Helvetica,sans-Serif" font-size="14.00">squared_error = 233557564926.017</text>
<text text-anchor="start" x="1503.5" y="-1158.8" font-family="Helvetica,sans-Serif" font-size="14.00">samples = 1314</text>
<text text-anchor="start" x="1487" y="-1143.8" font-family="Helvetica,sans-Serif" font-size="14.00">value = 1141827.482</text>
</g>
<!-- 29&#45;&gt;31 -->
<g id="edge31" class="edge"><title>29&#45;&gt;31</title>
<path fill="none" stroke="black" d="M1394.15,-1202.46C1408.71,-1198.82 1423.51,-1195.12 1437.95,-1191.51"/>
<polygon fill="black" stroke="black" points="1439.02,-1194.85 1447.88,-1189.03 1437.33,-1188.06 1439.02,-1194.85"/>
</g>
<!-- 33 -->
<g id="node34" class="node"><title>33</title>
<path fill="#fbebe0" stroke="black" d="M806,-876.5C806,-876.5 588,-876.5 588,-876.5 582,-876.5 576,-870.5 576,-864.5 576,-864.5 576,-820.5 576,-820.5 576,-814.5 582,-808.5 588,-808.5 588,-808.5 806,-808.5 806,-808.5 812,-808.5 818,-814.5 818,-820.5 818,-820.5 818,-864.5 818,-864.5 818,-870.5 812,-876.5 806,-876.5"/>
<text text-anchor="start" x="657.5" y="-861.3" font-family="Helvetica,sans-Serif" font-size="14.00">Store ≤ 33.5</text>
<text text-anchor="start" x="584" y="-846.3" font-family="Helvetica,sans-Serif" font-size="14.00">squared_error = 85195410569.685</text>
<text text-anchor="start" x="649.5" y="-831.3" font-family="Helvetica,sans-Serif" font-size="14.00">samples = 758</text>
<text text-anchor="start" x="641.5" y="-816.3" font-family="Helvetica,sans-Serif" font-size="14.00">value = 598935.9</text>
</g>
<!-- 32&#45;&gt;33 -->
<g id="edge33" class="edge"><title>32&#45;&gt;33</title>
<path fill="none" stroke="black" d="M536.153,-842.5C545.902,-842.5 555.764,-842.5 565.553,-842.5"/>
<polygon fill="black" stroke="black" points="565.719,-846 575.719,-842.5 565.719,-839 565.719,-846"/>
</g>
<!-- 48 -->
<g id="node49" class="node"><title>48</title>
<path fill="#f7d9c3" stroke="black" d="M810,-450.5C810,-450.5 584,-450.5 584,-450.5 578,-450.5 572,-444.5 572,-438.5 572,-438.5 572,-394.5 572,-394.5 572,-388.5 578,-382.5 584,-382.5 584,-382.5 810,-382.5 810,-382.5 816,-382.5 822,-388.5 822,-394.5 822,-394.5 822,-438.5 822,-438.5 822,-444.5 816,-450.5 810,-450.5"/>
<text text-anchor="start" x="657.5" y="-435.3" font-family="Helvetica,sans-Serif" font-size="14.00">Store ≤ 30.5</text>
<text text-anchor="start" x="580" y="-420.3" font-family="Helvetica,sans-Serif" font-size="14.00">squared_error = 184862890987.324</text>
<text text-anchor="start" x="645.5" y="-405.3" font-family="Helvetica,sans-Serif" font-size="14.00">samples = 1014</text>
<text text-anchor="start" x="633.5" y="-390.3" font-family="Helvetica,sans-Serif" font-size="14.00">value = 917201.251</text>
</g>
<!-- 32&#45;&gt;48 -->
<g id="edge48" class="edge"><title>32&#45;&gt;48</title>
<path fill="none" stroke="black" d="M434.761,-808.359C486.235,-731.147 611.484,-543.274 667.778,-458.833"/>
<polygon fill="black" stroke="black" points="670.693,-460.77 673.328,-450.508 664.869,-456.887 670.693,-460.77"/>
</g>
<!-- 34 -->
<g id="node35" class="node"><title>34</title>
<path fill="#fdf5f0" stroke="black" d="M1092,-940.5C1092,-940.5 874,-940.5 874,-940.5 868,-940.5 862,-934.5 862,-928.5 862,-928.5 862,-884.5 862,-884.5 862,-878.5 868,-872.5 874,-872.5 874,-872.5 1092,-872.5 1092,-872.5 1098,-872.5 1104,-878.5 1104,-884.5 1104,-884.5 1104,-928.5 1104,-928.5 1104,-934.5 1098,-940.5 1092,-940.5"/>
<text text-anchor="start" x="943.5" y="-925.3" font-family="Helvetica,sans-Serif" font-size="14.00">Store ≤ 31.0</text>
<text text-anchor="start" x="870" y="-910.3" font-family="Helvetica,sans-Serif" font-size="14.00">squared_error = 26830958606.809</text>
<text text-anchor="start" x="935.5" y="-895.3" font-family="Helvetica,sans-Serif" font-size="14.00">samples = 276</text>
<text text-anchor="start" x="919.5" y="-880.3" font-family="Helvetica,sans-Serif" font-size="14.00">value = 419361.528</text>
</g>
<!-- 33&#45;&gt;34 -->
<g id="edge34" class="edge"><title>33&#45;&gt;34</title>
<path fill="none" stroke="black" d="M818.03,-869.549C829.27,-872.082 840.699,-874.658 852.025,-877.21"/>
<polygon fill="black" stroke="black" points="851.42,-880.661 861.944,-879.445 852.958,-873.832 851.42,-880.661"/>
</g>
<!-- 41 -->
<g id="node42" class="node"><title>41</title>
<path fill="#fae5d7" stroke="black" d="M1092,-813.5C1092,-813.5 874,-813.5 874,-813.5 868,-813.5 862,-807.5 862,-801.5 862,-801.5 862,-757.5 862,-757.5 862,-751.5 868,-745.5 874,-745.5 874,-745.5 1092,-745.5 1092,-745.5 1098,-745.5 1104,-751.5 1104,-757.5 1104,-757.5 1104,-801.5 1104,-801.5 1104,-807.5 1098,-813.5 1092,-813.5"/>
<text text-anchor="start" x="943.5" y="-798.3" font-family="Helvetica,sans-Serif" font-size="14.00">Store ≤ 41.0</text>
<text text-anchor="start" x="870" y="-783.3" font-family="Helvetica,sans-Serif" font-size="14.00">squared_error = 89577303229.336</text>
<text text-anchor="start" x="935.5" y="-768.3" font-family="Helvetica,sans-Serif" font-size="14.00">samples = 482</text>
<text text-anchor="start" x="919.5" y="-753.3" font-family="Helvetica,sans-Serif" font-size="14.00">value = 701762.719</text>
</g>
<!-- 33&#45;&gt;41 -->
<g id="edge41" class="edge"><title>33&#45;&gt;41</title>
<path fill="none" stroke="black" d="M818.03,-815.874C829.27,-813.38 840.699,-810.845 852.025,-808.332"/>
<polygon fill="black" stroke="black" points="852.94,-811.715 861.944,-806.132 851.424,-804.881 852.94,-811.715"/>
</g>
<!-- 35 -->
<g id="node36" class="node"><title>35</title>
<path fill="#fceee5" stroke="black" d="M1378,-1054.5C1378,-1054.5 1160,-1054.5 1160,-1054.5 1154,-1054.5 1148,-1048.5 1148,-1042.5 1148,-1042.5 1148,-998.5 1148,-998.5 1148,-992.5 1154,-986.5 1160,-986.5 1160,-986.5 1378,-986.5 1378,-986.5 1384,-986.5 1390,-992.5 1390,-998.5 1390,-998.5 1390,-1042.5 1390,-1042.5 1390,-1048.5 1384,-1054.5 1378,-1054.5"/>
<text text-anchor="start" x="1228" y="-1039.3" font-family="Helvetica,sans-Serif" font-size="14.00">Week ≤ 46.0</text>
<text text-anchor="start" x="1156" y="-1024.3" font-family="Helvetica,sans-Serif" font-size="14.00">squared_error = 11232919022.505</text>
<text text-anchor="start" x="1221.5" y="-1009.3" font-family="Helvetica,sans-Serif" font-size="14.00">samples = 155</text>
<text text-anchor="start" x="1205.5" y="-994.3" font-family="Helvetica,sans-Serif" font-size="14.00">value = 545134.455</text>
</g>
<!-- 34&#45;&gt;35 -->
<g id="edge35" class="edge"><title>34&#45;&gt;35</title>
<path fill="none" stroke="black" d="M1068.82,-940.549C1101.84,-953.803 1139.81,-969.044 1173.68,-982.641"/>
<polygon fill="black" stroke="black" points="1172.54,-985.952 1183.12,-986.429 1175.15,-979.456 1172.54,-985.952"/>
</g>
<!-- 38 -->
<g id="node39" class="node"><title>38</title>
<path fill="#fffffe" stroke="black" d="M1369.5,-940.5C1369.5,-940.5 1168.5,-940.5 1168.5,-940.5 1162.5,-940.5 1156.5,-934.5 1156.5,-928.5 1156.5,-928.5 1156.5,-884.5 1156.5,-884.5 1156.5,-878.5 1162.5,-872.5 1168.5,-872.5 1168.5,-872.5 1369.5,-872.5 1369.5,-872.5 1375.5,-872.5 1381.5,-878.5 1381.5,-884.5 1381.5,-884.5 1381.5,-928.5 1381.5,-928.5 1381.5,-934.5 1375.5,-940.5 1369.5,-940.5"/>
<text text-anchor="start" x="1195" y="-925.3" font-family="Helvetica,sans-Serif" font-size="14.00">Unemployment ≤ 9.672</text>
<text text-anchor="start" x="1164.5" y="-910.3" font-family="Helvetica,sans-Serif" font-size="14.00">squared_error = 590382517.426</text>
<text text-anchor="start" x="1221.5" y="-895.3" font-family="Helvetica,sans-Serif" font-size="14.00">samples = 121</text>
<text text-anchor="start" x="1205.5" y="-880.3" font-family="Helvetica,sans-Serif" font-size="14.00">value = 258247.449</text>
</g>
<!-- 34&#45;&gt;38 -->
<g id="edge38" class="edge"><title>34&#45;&gt;38</title>
<path fill="none" stroke="black" d="M1104.03,-906.5C1117.92,-906.5 1132.09,-906.5 1146.01,-906.5"/>
<polygon fill="black" stroke="black" points="1146.08,-910 1156.08,-906.5 1146.08,-903 1146.08,-910"/>
</g>
<!-- 36 -->
<g id="node37" class="node"><title>36</title>
<path fill="#fcf0e7" stroke="black" d="M1659.5,-1118C1659.5,-1118 1450.5,-1118 1450.5,-1118 1444.5,-1118 1438.5,-1112 1438.5,-1106 1438.5,-1106 1438.5,-1077 1438.5,-1077 1438.5,-1071 1444.5,-1065 1450.5,-1065 1450.5,-1065 1659.5,-1065 1659.5,-1065 1665.5,-1065 1671.5,-1071 1671.5,-1077 1671.5,-1077 1671.5,-1106 1671.5,-1106 1671.5,-1112 1665.5,-1118 1659.5,-1118"/>
<text text-anchor="start" x="1446.5" y="-1102.8" font-family="Helvetica,sans-Serif" font-size="14.00">squared_error = 1749217852.389</text>
<text text-anchor="start" x="1507.5" y="-1087.8" font-family="Helvetica,sans-Serif" font-size="14.00">samples = 137</text>
<text text-anchor="start" x="1491.5" y="-1072.8" font-family="Helvetica,sans-Serif" font-size="14.00">value = 517377.424</text>
</g>
<!-- 35&#45;&gt;36 -->
<g id="edge36" class="edge"><title>35&#45;&gt;36</title>
<path fill="none" stroke="black" d="M1390.03,-1050.51C1405.95,-1054.49 1422.25,-1058.56 1438.1,-1062.53"/>
<polygon fill="black" stroke="black" points="1437.35,-1065.95 1447.9,-1064.98 1439.05,-1059.16 1437.35,-1065.95"/>
</g>
<!-- 37 -->
<g id="node38" class="node"><title>37</title>
<path fill="#f9e2d2" stroke="black" d="M1664,-1047C1664,-1047 1446,-1047 1446,-1047 1440,-1047 1434,-1041 1434,-1035 1434,-1035 1434,-1006 1434,-1006 1434,-1000 1440,-994 1446,-994 1446,-994 1664,-994 1664,-994 1670,-994 1676,-1000 1676,-1006 1676,-1006 1676,-1035 1676,-1035 1676,-1041 1670,-1047 1664,-1047"/>
<text text-anchor="start" x="1442" y="-1031.8" font-family="Helvetica,sans-Serif" font-size="14.00">squared_error = 32918852383.848</text>
<text text-anchor="start" x="1511.5" y="-1016.8" font-family="Helvetica,sans-Serif" font-size="14.00">samples = 18</text>
<text text-anchor="start" x="1491.5" y="-1001.8" font-family="Helvetica,sans-Serif" font-size="14.00">value = 756396.303</text>
</g>
<!-- 35&#45;&gt;37 -->
<g id="edge37" class="edge"><title>35&#45;&gt;37</title>
<path fill="none" stroke="black" d="M1390.03,-1020.5C1401.16,-1020.5 1412.47,-1020.5 1423.68,-1020.5"/>
<polygon fill="black" stroke="black" points="1423.94,-1024 1433.94,-1020.5 1423.94,-1017 1423.94,-1024"/>
</g>
<!-- 39 -->
<g id="node40" class="node"><title>39</title>
<path fill="#ffffff" stroke="black" d="M1655.5,-976C1655.5,-976 1454.5,-976 1454.5,-976 1448.5,-976 1442.5,-970 1442.5,-964 1442.5,-964 1442.5,-935 1442.5,-935 1442.5,-929 1448.5,-923 1454.5,-923 1454.5,-923 1655.5,-923 1655.5,-923 1661.5,-923 1667.5,-929 1667.5,-935 1667.5,-935 1667.5,-964 1667.5,-964 1667.5,-970 1661.5,-976 1655.5,-976"/>
<text text-anchor="start" x="1450.5" y="-960.8" font-family="Helvetica,sans-Serif" font-size="14.00">squared_error = 369613685.714</text>
<text text-anchor="start" x="1507.5" y="-945.8" font-family="Helvetica,sans-Serif" font-size="14.00">samples = 106</text>
<text text-anchor="start" x="1491.5" y="-930.8" font-family="Helvetica,sans-Serif" font-size="14.00">value = 252531.904</text>
</g>
<!-- 38&#45;&gt;39 -->
<g id="edge39" class="edge"><title>38&#45;&gt;39</title>
<path fill="none" stroke="black" d="M1381.84,-923.433C1398.29,-925.924 1415.31,-928.501 1431.96,-931.022"/>
<polygon fill="black" stroke="black" points="1431.85,-934.546 1442.27,-932.582 1432.9,-927.625 1431.85,-934.546"/>
</g>
<!-- 40 -->
<g id="node41" class="node"><title>40</title>
<path fill="#fefcfb" stroke="black" d="M1655.5,-905C1655.5,-905 1454.5,-905 1454.5,-905 1448.5,-905 1442.5,-899 1442.5,-893 1442.5,-893 1442.5,-864 1442.5,-864 1442.5,-858 1448.5,-852 1454.5,-852 1454.5,-852 1655.5,-852 1655.5,-852 1661.5,-852 1667.5,-858 1667.5,-864 1667.5,-864 1667.5,-893 1667.5,-893 1667.5,-899 1661.5,-905 1655.5,-905"/>
<text text-anchor="start" x="1450.5" y="-889.8" font-family="Helvetica,sans-Serif" font-size="14.00">squared_error = 288292373.874</text>
<text text-anchor="start" x="1511.5" y="-874.8" font-family="Helvetica,sans-Serif" font-size="14.00">samples = 15</text>
<text text-anchor="start" x="1491.5" y="-859.8" font-family="Helvetica,sans-Serif" font-size="14.00">value = 298637.298</text>
</g>
<!-- 38&#45;&gt;40 -->
<g id="edge40" class="edge"><title>38&#45;&gt;40</title>
<path fill="none" stroke="black" d="M1381.84,-895.474C1398.29,-893.852 1415.31,-892.174 1431.96,-890.532"/>
<polygon fill="black" stroke="black" points="1432.66,-893.98 1442.27,-889.516 1431.97,-887.014 1432.66,-893.98"/>
</g>
<!-- 42 -->
<g id="node43" class="node"><title>42</title>
<path fill="#f7d7c0" stroke="black" d="M1378,-813.5C1378,-813.5 1160,-813.5 1160,-813.5 1154,-813.5 1148,-807.5 1148,-801.5 1148,-801.5 1148,-757.5 1148,-757.5 1148,-751.5 1154,-745.5 1160,-745.5 1160,-745.5 1378,-745.5 1378,-745.5 1384,-745.5 1390,-751.5 1390,-757.5 1390,-757.5 1390,-801.5 1390,-801.5 1390,-807.5 1384,-813.5 1378,-813.5"/>
<text text-anchor="start" x="1222" y="-798.3" font-family="Helvetica,sans-Serif" font-size="14.00">CPI ≤ 136.624</text>
<text text-anchor="start" x="1156" y="-783.3" font-family="Helvetica,sans-Serif" font-size="14.00">squared_error = 21435713411.072</text>
<text text-anchor="start" x="1221.5" y="-768.3" font-family="Helvetica,sans-Serif" font-size="14.00">samples = 250</text>
<text text-anchor="start" x="1205.5" y="-753.3" font-family="Helvetica,sans-Serif" font-size="14.00">value = 957766.172</text>
</g>
<!-- 41&#45;&gt;42 -->
<g id="edge42" class="edge"><title>41&#45;&gt;42</title>
<path fill="none" stroke="black" d="M1104.03,-779.5C1115.16,-779.5 1126.47,-779.5 1137.68,-779.5"/>
<polygon fill="black" stroke="black" points="1137.94,-783 1147.94,-779.5 1137.94,-776 1137.94,-783"/>
</g>
<!-- 45 -->
<g id="node46" class="node"><title>45</title>
<path fill="#fdf5ef" stroke="black" d="M1378,-699.5C1378,-699.5 1160,-699.5 1160,-699.5 1154,-699.5 1148,-693.5 1148,-687.5 1148,-687.5 1148,-643.5 1148,-643.5 1148,-637.5 1154,-631.5 1160,-631.5 1160,-631.5 1378,-631.5 1378,-631.5 1384,-631.5 1390,-637.5 1390,-643.5 1390,-643.5 1390,-687.5 1390,-687.5 1390,-693.5 1384,-699.5 1378,-699.5"/>
<text text-anchor="start" x="1229.5" y="-684.3" font-family="Helvetica,sans-Serif" font-size="14.00">Store ≤ 43.0</text>
<text text-anchor="start" x="1156" y="-669.3" font-family="Helvetica,sans-Serif" font-size="14.00">squared_error = 16281210742.043</text>
<text text-anchor="start" x="1221.5" y="-654.3" font-family="Helvetica,sans-Serif" font-size="14.00">samples = 232</text>
<text text-anchor="start" x="1205.5" y="-639.3" font-family="Helvetica,sans-Serif" font-size="14.00">value = 425896.928</text>
</g>
<!-- 41&#45;&gt;45 -->
<g id="edge45" class="edge"><title>41&#45;&gt;45</title>
<path fill="none" stroke="black" d="M1068.82,-745.451C1101.84,-732.197 1139.81,-716.956 1173.68,-703.359"/>
<polygon fill="black" stroke="black" points="1175.15,-706.544 1183.12,-699.571 1172.54,-700.048 1175.15,-706.544"/>
</g>
<!-- 43 -->
<g id="node44" class="node"><title>43</title>
<path fill="#f6d5be" stroke="black" d="M1664,-834C1664,-834 1446,-834 1446,-834 1440,-834 1434,-828 1434,-822 1434,-822 1434,-793 1434,-793 1434,-787 1440,-781 1446,-781 1446,-781 1664,-781 1664,-781 1670,-781 1676,-787 1676,-793 1676,-793 1676,-822 1676,-822 1676,-828 1670,-834 1664,-834"/>
<text text-anchor="start" x="1442" y="-818.8" font-family="Helvetica,sans-Serif" font-size="14.00">squared_error = 19294455651.559</text>
<text text-anchor="start" x="1507.5" y="-803.8" font-family="Helvetica,sans-Serif" font-size="14.00">samples = 217</text>
<text text-anchor="start" x="1491.5" y="-788.8" font-family="Helvetica,sans-Serif" font-size="14.00">value = 981985.482</text>
</g>
<!-- 42&#45;&gt;43 -->
<g id="edge43" class="edge"><title>42&#45;&gt;43</title>
<path fill="none" stroke="black" d="M1390.03,-791.334C1401.16,-792.431 1412.47,-793.546 1423.68,-794.652"/>
<polygon fill="black" stroke="black" points="1423.65,-798.165 1433.94,-795.664 1424.34,-791.199 1423.65,-798.165"/>
</g>
<!-- 44 -->
<g id="node45" class="node"><title>44</title>
<path fill="#f9e0ce" stroke="black" d="M1659.5,-763C1659.5,-763 1450.5,-763 1450.5,-763 1444.5,-763 1438.5,-757 1438.5,-751 1438.5,-751 1438.5,-722 1438.5,-722 1438.5,-716 1444.5,-710 1450.5,-710 1450.5,-710 1659.5,-710 1659.5,-710 1665.5,-710 1671.5,-716 1671.5,-722 1671.5,-722 1671.5,-751 1671.5,-751 1671.5,-757 1665.5,-763 1659.5,-763"/>
<text text-anchor="start" x="1446.5" y="-747.8" font-family="Helvetica,sans-Serif" font-size="14.00">squared_error = 6295084319.731</text>
<text text-anchor="start" x="1511.5" y="-732.8" font-family="Helvetica,sans-Serif" font-size="14.00">samples = 33</text>
<text text-anchor="start" x="1491.5" y="-717.8" font-family="Helvetica,sans-Serif" font-size="14.00">value = 798505.863</text>
</g>
<!-- 42&#45;&gt;44 -->
<g id="edge44" class="edge"><title>42&#45;&gt;44</title>
<path fill="none" stroke="black" d="M1390.03,-761.326C1402.69,-759.409 1415.59,-757.456 1428.32,-755.53"/>
<polygon fill="black" stroke="black" points="1429.11,-758.949 1438.48,-753.991 1428.06,-752.028 1429.11,-758.949"/>
</g>
<!-- 46 -->
<g id="node47" class="node"><title>46</title>
<path fill="#fbeee4" stroke="black" d="M1659.5,-692C1659.5,-692 1450.5,-692 1450.5,-692 1444.5,-692 1438.5,-686 1438.5,-680 1438.5,-680 1438.5,-651 1438.5,-651 1438.5,-645 1444.5,-639 1450.5,-639 1450.5,-639 1659.5,-639 1659.5,-639 1665.5,-639 1671.5,-645 1671.5,-651 1671.5,-651 1671.5,-680 1671.5,-680 1671.5,-686 1665.5,-692 1659.5,-692"/>
<text text-anchor="start" x="1446.5" y="-676.8" font-family="Helvetica,sans-Serif" font-size="14.00">squared_error = 1890892470.596</text>
<text text-anchor="start" x="1507.5" y="-661.8" font-family="Helvetica,sans-Serif" font-size="14.00">samples = 112</text>
<text text-anchor="start" x="1491.5" y="-646.8" font-family="Helvetica,sans-Serif" font-size="14.00">value = 552740.568</text>
</g>
<!-- 45&#45;&gt;46 -->
<g id="edge46" class="edge"><title>45&#45;&gt;46</title>
<path fill="none" stroke="black" d="M1390.03,-665.5C1402.69,-665.5 1415.59,-665.5 1428.32,-665.5"/>
<polygon fill="black" stroke="black" points="1428.48,-669 1438.48,-665.5 1428.48,-662 1428.48,-669"/>
</g>
<!-- 47 -->
<g id="node48" class="node"><title>47</title>
<path fill="#fefcfa" stroke="black" d="M1655.5,-621C1655.5,-621 1454.5,-621 1454.5,-621 1448.5,-621 1442.5,-615 1442.5,-609 1442.5,-609 1442.5,-580 1442.5,-580 1442.5,-574 1448.5,-568 1454.5,-568 1454.5,-568 1655.5,-568 1655.5,-568 1661.5,-568 1667.5,-574 1667.5,-580 1667.5,-580 1667.5,-609 1667.5,-609 1667.5,-615 1661.5,-621 1655.5,-621"/>
<text text-anchor="start" x="1450.5" y="-605.8" font-family="Helvetica,sans-Serif" font-size="14.00">squared_error = 679910120.837</text>
<text text-anchor="start" x="1507.5" y="-590.8" font-family="Helvetica,sans-Serif" font-size="14.00">samples = 120</text>
<text text-anchor="start" x="1495.5" y="-575.8" font-family="Helvetica,sans-Serif" font-size="14.00">value = 307509.53</text>
</g>
<!-- 45&#45;&gt;47 -->
<g id="edge47" class="edge"><title>45&#45;&gt;47</title>
<path fill="none" stroke="black" d="M1390.03,-635.493C1405.95,-631.512 1422.25,-627.437 1438.1,-623.475"/>
<polygon fill="black" stroke="black" points="1439.05,-626.845 1447.9,-621.024 1437.35,-620.054 1439.05,-626.845"/>
</g>
<!-- 49 -->
<g id="node50" class="node"><title>49</title>
<path fill="#fdf4ee" stroke="black" d="M1083.5,-450.5C1083.5,-450.5 882.5,-450.5 882.5,-450.5 876.5,-450.5 870.5,-444.5 870.5,-438.5 870.5,-438.5 870.5,-394.5 870.5,-394.5 870.5,-388.5 876.5,-382.5 882.5,-382.5 882.5,-382.5 1083.5,-382.5 1083.5,-382.5 1089.5,-382.5 1095.5,-388.5 1095.5,-394.5 1095.5,-394.5 1095.5,-438.5 1095.5,-438.5 1095.5,-444.5 1089.5,-450.5 1083.5,-450.5"/>
<text text-anchor="start" x="909" y="-435.3" font-family="Helvetica,sans-Serif" font-size="14.00">Unemployment ≤ 8.181</text>
<text text-anchor="start" x="878.5" y="-420.3" font-family="Helvetica,sans-Serif" font-size="14.00">squared_error = 380672142.341</text>
<text text-anchor="start" x="935.5" y="-405.3" font-family="Helvetica,sans-Serif" font-size="14.00">samples = 118</text>
<text text-anchor="start" x="919.5" y="-390.3" font-family="Helvetica,sans-Serif" font-size="14.00">value = 439152.125</text>
</g>
<!-- 48&#45;&gt;49 -->
<g id="edge49" class="edge"><title>48&#45;&gt;49</title>
<path fill="none" stroke="black" d="M822.153,-416.5C834.755,-416.5 847.548,-416.5 860.125,-416.5"/>
<polygon fill="black" stroke="black" points="860.158,-420 870.158,-416.5 860.158,-413 860.158,-420"/>
</g>
<!-- 56 -->
<g id="node57" class="node"><title>56</title>
<path fill="#f6d6be" stroke="black" d="M1096,-245.5C1096,-245.5 870,-245.5 870,-245.5 864,-245.5 858,-239.5 858,-233.5 858,-233.5 858,-189.5 858,-189.5 858,-183.5 864,-177.5 870,-177.5 870,-177.5 1096,-177.5 1096,-177.5 1102,-177.5 1108,-183.5 1108,-189.5 1108,-189.5 1108,-233.5 1108,-233.5 1108,-239.5 1102,-245.5 1096,-245.5"/>
<text text-anchor="start" x="943.5" y="-230.3" font-family="Helvetica,sans-Serif" font-size="14.00">Store ≤ 33.5</text>
<text text-anchor="start" x="866" y="-215.3" font-family="Helvetica,sans-Serif" font-size="14.00">squared_error = 175098198568.114</text>
<text text-anchor="start" x="935.5" y="-200.3" font-family="Helvetica,sans-Serif" font-size="14.00">samples = 896</text>
<text text-anchor="start" x="919.5" y="-185.3" font-family="Helvetica,sans-Serif" font-size="14.00">value = 980158.614</text>
</g>
<!-- 48&#45;&gt;56 -->
<g id="edge56" class="edge"><title>48&#45;&gt;56</title>
<path fill="none" stroke="black" d="M745.216,-382.418C795.072,-346.431 873.617,-289.735 926.425,-251.616"/>
<polygon fill="black" stroke="black" points="928.612,-254.354 934.671,-245.663 924.515,-248.678 928.612,-254.354"/>
</g>
<!-- 50 -->
<g id="node51" class="node"><title>50</title>
<path fill="#fdf5ef" stroke="black" d="M1365.5,-493.5C1365.5,-493.5 1172.5,-493.5 1172.5,-493.5 1166.5,-493.5 1160.5,-487.5 1160.5,-481.5 1160.5,-481.5 1160.5,-437.5 1160.5,-437.5 1160.5,-431.5 1166.5,-425.5 1172.5,-425.5 1172.5,-425.5 1365.5,-425.5 1365.5,-425.5 1371.5,-425.5 1377.5,-431.5 1377.5,-437.5 1377.5,-437.5 1377.5,-481.5 1377.5,-481.5 1377.5,-487.5 1371.5,-493.5 1365.5,-493.5"/>
<text text-anchor="start" x="1228" y="-478.3" font-family="Helvetica,sans-Serif" font-size="14.00">Week ≤ 51.0</text>
<text text-anchor="start" x="1168.5" y="-463.3" font-family="Helvetica,sans-Serif" font-size="14.00">squared_error = 255447610.09</text>
<text text-anchor="start" x="1225.5" y="-448.3" font-family="Helvetica,sans-Serif" font-size="14.00">samples = 96</text>
<text text-anchor="start" x="1205.5" y="-433.3" font-family="Helvetica,sans-Serif" font-size="14.00">value = 433384.094</text>
</g>
<!-- 49&#45;&gt;50 -->
<g id="edge50" class="edge"><title>49&#45;&gt;50</title>
<path fill="none" stroke="black" d="M1095.84,-433.433C1113.78,-436.15 1132.4,-438.968 1150.47,-441.705"/>
<polygon fill="black" stroke="black" points="1150.03,-445.178 1160.44,-443.215 1151.08,-438.257 1150.03,-445.178"/>
</g>
<!-- 53 -->
<g id="node54" class="node"><title>53</title>
<path fill="#fdf3ec" stroke="black" d="M1369.5,-407.5C1369.5,-407.5 1168.5,-407.5 1168.5,-407.5 1162.5,-407.5 1156.5,-401.5 1156.5,-395.5 1156.5,-395.5 1156.5,-351.5 1156.5,-351.5 1156.5,-345.5 1162.5,-339.5 1168.5,-339.5 1168.5,-339.5 1369.5,-339.5 1369.5,-339.5 1375.5,-339.5 1381.5,-345.5 1381.5,-351.5 1381.5,-351.5 1381.5,-395.5 1381.5,-395.5 1381.5,-401.5 1375.5,-407.5 1369.5,-407.5"/>
<text text-anchor="start" x="1210" y="-392.3" font-family="Helvetica,sans-Serif" font-size="14.00">Holiday_Flag ≤ 0.5</text>
<text text-anchor="start" x="1164.5" y="-377.3" font-family="Helvetica,sans-Serif" font-size="14.00">squared_error = 148419454.604</text>
<text text-anchor="start" x="1225.5" y="-362.3" font-family="Helvetica,sans-Serif" font-size="14.00">samples = 22</text>
<text text-anchor="start" x="1205.5" y="-347.3" font-family="Helvetica,sans-Serif" font-size="14.00">value = 464321.711</text>
</g>
<!-- 49&#45;&gt;53 -->
<g id="edge53" class="edge"><title>49&#45;&gt;53</title>
<path fill="none" stroke="black" d="M1095.84,-399.567C1112.29,-397.076 1129.31,-394.499 1145.96,-391.978"/>
<polygon fill="black" stroke="black" points="1146.9,-395.375 1156.27,-390.418 1145.85,-388.454 1146.9,-395.375"/>
</g>
<!-- 51 -->
<g id="node52" class="node"><title>51</title>
<path fill="#fdf5ef" stroke="black" d="M1651.5,-550C1651.5,-550 1458.5,-550 1458.5,-550 1452.5,-550 1446.5,-544 1446.5,-538 1446.5,-538 1446.5,-509 1446.5,-509 1446.5,-503 1452.5,-497 1458.5,-497 1458.5,-497 1651.5,-497 1651.5,-497 1657.5,-497 1663.5,-503 1663.5,-509 1663.5,-509 1663.5,-538 1663.5,-538 1663.5,-544 1657.5,-550 1651.5,-550"/>
<text text-anchor="start" x="1454.5" y="-534.8" font-family="Helvetica,sans-Serif" font-size="14.00">squared_error = 178467217.28</text>
<text text-anchor="start" x="1511.5" y="-519.8" font-family="Helvetica,sans-Serif" font-size="14.00">samples = 93</text>
<text text-anchor="start" x="1491.5" y="-504.8" font-family="Helvetica,sans-Serif" font-size="14.00">value = 434985.883</text>
</g>
<!-- 50&#45;&gt;51 -->
<g id="edge51" class="edge"><title>50&#45;&gt;51</title>
<path fill="none" stroke="black" d="M1377.77,-483.787C1396.97,-488.113 1417.05,-492.639 1436.5,-497.022"/>
<polygon fill="black" stroke="black" points="1435.78,-500.446 1446.3,-499.23 1437.31,-493.617 1435.78,-500.446"/>
</g>
<!-- 52 -->
<g id="node53" class="node"><title>52</title>
<path fill="#fdf8f3" stroke="black" d="M1651.5,-479C1651.5,-479 1458.5,-479 1458.5,-479 1452.5,-479 1446.5,-473 1446.5,-467 1446.5,-467 1446.5,-438 1446.5,-438 1446.5,-432 1452.5,-426 1458.5,-426 1458.5,-426 1651.5,-426 1651.5,-426 1657.5,-426 1663.5,-432 1663.5,-438 1663.5,-438 1663.5,-467 1663.5,-467 1663.5,-473 1657.5,-479 1651.5,-479"/>
<text text-anchor="start" x="1454.5" y="-463.8" font-family="Helvetica,sans-Serif" font-size="14.00">squared_error = 96638084.827</text>
<text text-anchor="start" x="1515.5" y="-448.8" font-family="Helvetica,sans-Serif" font-size="14.00">samples = 3</text>
<text text-anchor="start" x="1495.5" y="-433.8" font-family="Helvetica,sans-Serif" font-size="14.00">value = 383728.64</text>
</g>
<!-- 50&#45;&gt;52 -->
<g id="edge52" class="edge"><title>50&#45;&gt;52</title>
<path fill="none" stroke="black" d="M1377.77,-456.844C1396.88,-456.373 1416.87,-455.88 1436.24,-455.403"/>
<polygon fill="black" stroke="black" points="1436.39,-458.9 1446.3,-455.155 1436.22,-451.902 1436.39,-458.9"/>
</g>
<!-- 54 -->
<g id="node55" class="node"><title>54</title>
<path fill="#fdf3ec" stroke="black" d="M1651.5,-408C1651.5,-408 1458.5,-408 1458.5,-408 1452.5,-408 1446.5,-402 1446.5,-396 1446.5,-396 1446.5,-367 1446.5,-367 1446.5,-361 1452.5,-355 1458.5,-355 1458.5,-355 1651.5,-355 1651.5,-355 1657.5,-355 1663.5,-361 1663.5,-367 1663.5,-367 1663.5,-396 1663.5,-396 1663.5,-402 1657.5,-408 1651.5,-408"/>
<text text-anchor="start" x="1454.5" y="-392.8" font-family="Helvetica,sans-Serif" font-size="14.00">squared_error = 43087335.716</text>
<text text-anchor="start" x="1511.5" y="-377.8" font-family="Helvetica,sans-Serif" font-size="14.00">samples = 20</text>
<text text-anchor="start" x="1491.5" y="-362.8" font-family="Helvetica,sans-Serif" font-size="14.00">value = 461016.425</text>
</g>
<!-- 53&#45;&gt;54 -->
<g id="edge54" class="edge"><title>53&#45;&gt;54</title>
<path fill="none" stroke="black" d="M1381.84,-376.65C1399.7,-377.153 1418.22,-377.675 1436.22,-378.182"/>
<polygon fill="black" stroke="black" points="1436.35,-381.687 1446.44,-378.47 1436.55,-374.69 1436.35,-381.687"/>
</g>
<!-- 55 -->
<g id="node56" class="node"><title>55</title>
<path fill="#fcf1e9" stroke="black" d="M1625,-337C1625,-337 1485,-337 1485,-337 1479,-337 1473,-331 1473,-325 1473,-325 1473,-296 1473,-296 1473,-290 1479,-284 1485,-284 1485,-284 1625,-284 1625,-284 1631,-284 1637,-290 1637,-296 1637,-296 1637,-325 1637,-325 1637,-331 1631,-337 1625,-337"/>
<text text-anchor="start" x="1481" y="-321.8" font-family="Helvetica,sans-Serif" font-size="14.00">squared_error = &#45;0.001</text>
<text text-anchor="start" x="1515.5" y="-306.8" font-family="Helvetica,sans-Serif" font-size="14.00">samples = 2</text>
<text text-anchor="start" x="1495.5" y="-291.8" font-family="Helvetica,sans-Serif" font-size="14.00">value = 497374.57</text>
</g>
<!-- 53&#45;&gt;55 -->
<g id="edge55" class="edge"><title>53&#45;&gt;55</title>
<path fill="none" stroke="black" d="M1381.84,-348.691C1408.81,-342.707 1437.31,-336.385 1463.19,-330.644"/>
<polygon fill="black" stroke="black" points="1463.97,-334.056 1472.98,-328.474 1462.46,-327.222 1463.97,-334.056"/>
</g>
<!-- 57 -->
<g id="node58" class="node"><title>57</title>
<path fill="#f3c4a2" stroke="black" d="M1378,-245.5C1378,-245.5 1160,-245.5 1160,-245.5 1154,-245.5 1148,-239.5 1148,-233.5 1148,-233.5 1148,-189.5 1148,-189.5 1148,-183.5 1154,-177.5 1160,-177.5 1160,-177.5 1378,-177.5 1378,-177.5 1384,-177.5 1390,-183.5 1390,-189.5 1390,-189.5 1390,-233.5 1390,-233.5 1390,-239.5 1384,-245.5 1378,-245.5"/>
<text text-anchor="start" x="1222" y="-230.3" font-family="Helvetica,sans-Serif" font-size="14.00">CPI ≤ 204.575</text>
<text text-anchor="start" x="1156" y="-215.3" font-family="Helvetica,sans-Serif" font-size="14.00">squared_error = 33146826246.868</text>
<text text-anchor="start" x="1221.5" y="-200.3" font-family="Helvetica,sans-Serif" font-size="14.00">samples = 226</text>
<text text-anchor="start" x="1201" y="-185.3" font-family="Helvetica,sans-Serif" font-size="14.00">value = 1285398.699</text>
</g>
<!-- 56&#45;&gt;57 -->
<g id="edge57" class="edge"><title>56&#45;&gt;57</title>
<path fill="none" stroke="black" d="M1108.15,-211.5C1117.9,-211.5 1127.76,-211.5 1137.55,-211.5"/>
<polygon fill="black" stroke="black" points="1137.72,-215 1147.72,-211.5 1137.72,-208 1137.72,-215"/>
</g>
<!-- 60 -->
<g id="node61" class="node"><title>60</title>
<path fill="#f8dbc7" stroke="black" d="M1382,-131.5C1382,-131.5 1156,-131.5 1156,-131.5 1150,-131.5 1144,-125.5 1144,-119.5 1144,-119.5 1144,-75.5 1144,-75.5 1144,-69.5 1150,-63.5 1156,-63.5 1156,-63.5 1382,-63.5 1382,-63.5 1388,-63.5 1394,-69.5 1394,-75.5 1394,-75.5 1394,-119.5 1394,-119.5 1394,-125.5 1388,-131.5 1382,-131.5"/>
<text text-anchor="start" x="1229.5" y="-116.3" font-family="Helvetica,sans-Serif" font-size="14.00">Store ≤ 38.0</text>
<text text-anchor="start" x="1152" y="-101.3" font-family="Helvetica,sans-Serif" font-size="14.00">squared_error = 180951214318.589</text>
<text text-anchor="start" x="1221.5" y="-86.3" font-family="Helvetica,sans-Serif" font-size="14.00">samples = 670</text>
<text text-anchor="start" x="1205.5" y="-71.3" font-family="Helvetica,sans-Serif" font-size="14.00">value = 877197.033</text>
</g>
<!-- 56&#45;&gt;60 -->
<g id="edge60" class="edge"><title>56&#45;&gt;60</title>
<path fill="none" stroke="black" d="M1068.82,-177.451C1101.84,-164.197 1139.81,-148.956 1173.68,-135.359"/>
<polygon fill="black" stroke="black" points="1175.15,-138.544 1183.12,-131.571 1172.54,-132.048 1175.15,-138.544"/>
</g>
<!-- 58 -->
<g id="node59" class="node"><title>58</title>
<path fill="#f4cbad" stroke="black" d="M1664,-266C1664,-266 1446,-266 1446,-266 1440,-266 1434,-260 1434,-254 1434,-254 1434,-225 1434,-225 1434,-219 1440,-213 1446,-213 1446,-213 1664,-213 1664,-213 1670,-213 1676,-219 1676,-225 1676,-225 1676,-254 1676,-254 1676,-260 1670,-266 1664,-266"/>
<text text-anchor="start" x="1442" y="-250.8" font-family="Helvetica,sans-Serif" font-size="14.00">squared_error = 27605463523.868</text>
<text text-anchor="start" x="1507.5" y="-235.8" font-family="Helvetica,sans-Serif" font-size="14.00">samples = 110</text>
<text text-anchor="start" x="1487" y="-220.8" font-family="Helvetica,sans-Serif" font-size="14.00">value = 1166874.497</text>
</g>
<!-- 57&#45;&gt;58 -->
<g id="edge58" class="edge"><title>57&#45;&gt;58</title>
<path fill="none" stroke="black" d="M1390.03,-223.334C1401.16,-224.431 1412.47,-225.546 1423.68,-226.652"/>
<polygon fill="black" stroke="black" points="1423.65,-230.165 1433.94,-227.664 1424.34,-223.199 1423.65,-230.165"/>
</g>
<!-- 59 -->
<g id="node60" class="node"><title>59</title>
<path fill="#f2be98" stroke="black" d="M1659.5,-195C1659.5,-195 1450.5,-195 1450.5,-195 1444.5,-195 1438.5,-189 1438.5,-183 1438.5,-183 1438.5,-154 1438.5,-154 1438.5,-148 1444.5,-142 1450.5,-142 1450.5,-142 1659.5,-142 1659.5,-142 1665.5,-142 1671.5,-148 1671.5,-154 1671.5,-154 1671.5,-183 1671.5,-183 1671.5,-189 1665.5,-195 1659.5,-195"/>
<text text-anchor="start" x="1446.5" y="-179.8" font-family="Helvetica,sans-Serif" font-size="14.00">squared_error = 12447869790.08</text>
<text text-anchor="start" x="1507.5" y="-164.8" font-family="Helvetica,sans-Serif" font-size="14.00">samples = 116</text>
<text text-anchor="start" x="1491.5" y="-149.8" font-family="Helvetica,sans-Serif" font-size="14.00">value = 1397792.34</text>
</g>
<!-- 57&#45;&gt;59 -->
<g id="edge59" class="edge"><title>57&#45;&gt;59</title>
<path fill="none" stroke="black" d="M1390.03,-193.326C1402.69,-191.409 1415.59,-189.456 1428.32,-187.53"/>
<polygon fill="black" stroke="black" points="1429.11,-190.949 1438.48,-185.991 1428.06,-184.028 1429.11,-190.949"/>
</g>
<!-- 61 -->
<g id="node62" class="node"><title>61</title>
<path fill="#fceee5" stroke="black" d="M1664,-124C1664,-124 1446,-124 1446,-124 1440,-124 1434,-118 1434,-112 1434,-112 1434,-83 1434,-83 1434,-77 1440,-71 1446,-71 1446,-71 1664,-71 1664,-71 1670,-71 1676,-77 1676,-83 1676,-83 1676,-112 1676,-112 1676,-118 1670,-124 1664,-124"/>
<text text-anchor="start" x="1442" y="-108.8" font-family="Helvetica,sans-Serif" font-size="14.00">squared_error = 41312747293.148</text>
<text text-anchor="start" x="1507.5" y="-93.8" font-family="Helvetica,sans-Serif" font-size="14.00">samples = 252</text>
<text text-anchor="start" x="1491.5" y="-78.8" font-family="Helvetica,sans-Serif" font-size="14.00">value = 542318.741</text>
</g>
<!-- 60&#45;&gt;61 -->
<g id="edge61" class="edge"><title>60&#45;&gt;61</title>
<path fill="none" stroke="black" d="M1394.15,-97.5C1403.9,-97.5 1413.76,-97.5 1423.55,-97.5"/>
<polygon fill="black" stroke="black" points="1423.72,-101 1433.72,-97.5 1423.72,-94.0001 1423.72,-101"/>
</g>
<!-- 62 -->
<g id="node63" class="node"><title>62</title>
<path fill="#f5d0b5" stroke="black" d="M1668,-53C1668,-53 1442,-53 1442,-53 1436,-53 1430,-47 1430,-41 1430,-41 1430,-12 1430,-12 1430,-6 1436,-0 1442,-0 1442,-0 1668,-0 1668,-0 1674,-0 1680,-6 1680,-12 1680,-12 1680,-41 1680,-41 1680,-47 1674,-53 1668,-53"/>
<text text-anchor="start" x="1438" y="-37.8" font-family="Helvetica,sans-Serif" font-size="14.00">squared_error = 156768240039.141</text>
<text text-anchor="start" x="1507.5" y="-22.8" font-family="Helvetica,sans-Serif" font-size="14.00">samples = 418</text>
<text text-anchor="start" x="1487" y="-7.8" font-family="Helvetica,sans-Serif" font-size="14.00">value = 1079085.381</text>
</g>
<!-- 60&#45;&gt;62 -->
<g id="edge62" class="edge"><title>60&#45;&gt;62</title>
<path fill="none" stroke="black" d="M1394.15,-66.4617C1408.71,-62.8235 1423.51,-59.1218 1437.95,-55.5127"/>
<polygon fill="black" stroke="black" points="1439.02,-58.8518 1447.88,-53.0309 1437.33,-52.0608 1439.02,-58.8518"/>
</g>
</g>
</svg>
