<?xml version="1.0" encoding="UTF-8" standalone="no"?>
<!DOCTYPE svg PUBLIC "-//W3C//DTD SVG 1.1//EN"
 "http://www.w3.org/Graphics/SVG/1.1/DTD/svg11.dtd">
<!-- Generated by graphviz version 2.38.0 (20140413.2041)
 -->
<!-- Title: %3 Pages: 1 -->
<svg width="7718pt" height="479pt"
 viewBox="0.00 0.00 7718.36 479.00" xmlns="http://www.w3.org/2000/svg" xmlns:xlink="http://www.w3.org/1999/xlink">
<g id="graph0" class="graph" transform="scale(1 1) rotate(0) translate(4 475)">
<title>%3</title>
<polygon fill="white" stroke="none" points="-4,4 -4,-475 7714.36,-475 7714.36,4 -4,4"/>
<!-- 0 -->
<g id="node1" class="node"><title>0</title>
<ellipse fill="none" stroke="black" cx="4121.68" cy="-453" rx="99.3824" ry="18"/>
<text text-anchor="middle" x="4121.68" y="-449.3" font-family="Times New Roman,serif" font-size="14.00">Holiday_Flag, value&gt;0.5</text>
</g>
<!-- 1 -->
<g id="node2" class="node"><title>1</title>
<ellipse fill="none" stroke="black" cx="2768.68" cy="-366" rx="114.28" ry="18"/>
<text text-anchor="middle" x="2768.68" y="-362.3" font-family="Times New Roman,serif" font-size="14.00">Unemployment, value&gt;8.958</text>
</g>
<!-- 0&#45;&gt;1 -->
<g id="edge1" class="edge"><title>0&#45;&gt;1</title>
<path fill="none" stroke="black" d="M4029.48,-446.208C3789.49,-431.131 3145.84,-390.695 2882.93,-374.178"/>
<polygon fill="black" stroke="black" points="2882.8,-370.663 2872.6,-373.529 2882.36,-377.649 2882.8,-370.663"/>
<text text-anchor="middle" x="3535.68" y="-405.8" font-family="Times New Roman,serif" font-size="14.00">No</text>
</g>
<!-- 2 -->
<g id="node3" class="node"><title>2</title>
<ellipse fill="none" stroke="black" cx="4941.68" cy="-366" rx="114.28" ry="18"/>
<text text-anchor="middle" x="4941.68" y="-362.3" font-family="Times New Roman,serif" font-size="14.00">Unemployment, value&gt;8.958</text>
</g>
<!-- 0&#45;&gt;2 -->
<g id="edge2" class="edge"><title>0&#45;&gt;2</title>
<path fill="none" stroke="black" d="M4205.58,-443.303C4356.91,-427.616 4675.03,-394.64 4839.06,-377.638"/>
<polygon fill="black" stroke="black" points="4839.57,-381.104 4849.15,-376.591 4838.85,-374.141 4839.57,-381.104"/>
<text text-anchor="middle" x="4592.68" y="-405.8" font-family="Times New Roman,serif" font-size="14.00">Yes</text>
</g>
<!-- 3 -->
<g id="node4" class="node"><title>3</title>
<ellipse fill="none" stroke="black" cx="1319.68" cy="-279" rx="83.3857" ry="18"/>
<text text-anchor="middle" x="1319.68" y="-275.3" font-family="Times New Roman,serif" font-size="14.00">CPI, value&gt;130.834</text>
</g>
<!-- 1&#45;&gt;3 -->
<g id="edge3" class="edge"><title>1&#45;&gt;3</title>
<path fill="none" stroke="black" d="M2663.6,-358.836C2390.84,-342.836 1663.86,-300.19 1409.26,-285.255"/>
<polygon fill="black" stroke="black" points="1409.14,-281.742 1398.95,-284.65 1408.73,-288.73 1409.14,-281.742"/>
<text text-anchor="middle" x="2140.68" y="-318.8" font-family="Times New Roman,serif" font-size="14.00">No</text>
</g>
<!-- 4 -->
<g id="node5" class="node"><title>4</title>
<ellipse fill="none" stroke="black" cx="2768.68" cy="-279" rx="83.3857" ry="18"/>
<text text-anchor="middle" x="2768.68" y="-275.3" font-family="Times New Roman,serif" font-size="14.00">CPI, value&gt;130.834</text>
</g>
<!-- 1&#45;&gt;4 -->
<g id="edge4" class="edge"><title>1&#45;&gt;4</title>
<path fill="none" stroke="black" d="M2768.68,-347.799C2768.68,-336.163 2768.68,-320.548 2768.68,-307.237"/>
<polygon fill="black" stroke="black" points="2772.18,-307.175 2768.68,-297.175 2765.18,-307.175 2772.18,-307.175"/>
<text text-anchor="middle" x="2779.68" y="-318.8" font-family="Times New Roman,serif" font-size="14.00">Yes</text>
</g>
<!-- 5 -->
<g id="node6" class="node"><title>5</title>
<ellipse fill="none" stroke="black" cx="4941.68" cy="-279" rx="83.3857" ry="18"/>
<text text-anchor="middle" x="4941.68" y="-275.3" font-family="Times New Roman,serif" font-size="14.00">CPI, value&gt;130.834</text>
</g>
<!-- 2&#45;&gt;5 -->
<g id="edge5" class="edge"><title>2&#45;&gt;5</title>
<path fill="none" stroke="black" d="M4941.68,-347.799C4941.68,-336.163 4941.68,-320.548 4941.68,-307.237"/>
<polygon fill="black" stroke="black" points="4945.18,-307.175 4941.68,-297.175 4938.18,-307.175 4945.18,-307.175"/>
<text text-anchor="middle" x="4950.68" y="-318.8" font-family="Times New Roman,serif" font-size="14.00">No</text>
</g>
<!-- 6 -->
<g id="node7" class="node"><title>6</title>
<ellipse fill="none" stroke="black" cx="6390.68" cy="-279" rx="83.3857" ry="18"/>
<text text-anchor="middle" x="6390.68" y="-275.3" font-family="Times New Roman,serif" font-size="14.00">CPI, value&gt;130.834</text>
</g>
<!-- 2&#45;&gt;6 -->
<g id="edge6" class="edge"><title>2&#45;&gt;6</title>
<path fill="none" stroke="black" d="M5046.76,-358.836C5319.52,-342.836 6046.5,-300.19 6301.1,-285.255"/>
<polygon fill="black" stroke="black" points="6301.63,-288.73 6311.41,-284.65 6301.22,-281.742 6301.63,-288.73"/>
<text text-anchor="middle" x="5764.68" y="-318.8" font-family="Times New Roman,serif" font-size="14.00">Yes</text>
</g>
<!-- 7 -->
<g id="node8" class="node"><title>7</title>
<ellipse fill="none" stroke="black" cx="715.679" cy="-192" rx="228.26" ry="18"/>
<text text-anchor="middle" x="715.679" y="-188.3" font-family="Times New Roman,serif" font-size="14.00">{Store} counter_type=Borders prior_numerator=0, value&gt;2</text>
</g>
<!-- 3&#45;&gt;7 -->
<g id="edge7" class="edge"><title>3&#45;&gt;7</title>
<path fill="none" stroke="black" d="M1251.86,-268.456C1150.07,-254.131 956.46,-226.885 831.868,-209.351"/>
<polygon fill="black" stroke="black" points="832.291,-205.876 821.901,-207.948 831.316,-212.808 832.291,-205.876"/>
<text text-anchor="middle" x="1063.68" y="-231.8" font-family="Times New Roman,serif" font-size="14.00">No</text>
</g>
<!-- 8 -->
<g id="node9" class="node"><title>8</title>
<ellipse fill="none" stroke="black" cx="1319.68" cy="-192" rx="228.26" ry="18"/>
<text text-anchor="middle" x="1319.68" y="-188.3" font-family="Times New Roman,serif" font-size="14.00">{Store} counter_type=Borders prior_numerator=0, value&gt;2</text>
</g>
<!-- 3&#45;&gt;8 -->
<g id="edge8" class="edge"><title>3&#45;&gt;8</title>
<path fill="none" stroke="black" d="M1319.68,-260.799C1319.68,-249.163 1319.68,-233.548 1319.68,-220.237"/>
<polygon fill="black" stroke="black" points="1323.18,-220.175 1319.68,-210.175 1316.18,-220.175 1323.18,-220.175"/>
<text text-anchor="middle" x="1330.68" y="-231.8" font-family="Times New Roman,serif" font-size="14.00">Yes</text>
</g>
<!-- 9 -->
<g id="node10" class="node"><title>9</title>
<ellipse fill="none" stroke="black" cx="2647.68" cy="-192" rx="228.26" ry="18"/>
<text text-anchor="middle" x="2647.68" y="-188.3" font-family="Times New Roman,serif" font-size="14.00">{Store} counter_type=Borders prior_numerator=0, value&gt;2</text>
</g>
<!-- 4&#45;&gt;9 -->
<g id="edge9" class="edge"><title>4&#45;&gt;9</title>
<path fill="none" stroke="black" d="M2745.35,-261.611C2726.84,-248.61 2700.76,-230.286 2680.2,-215.845"/>
<polygon fill="black" stroke="black" points="2681.96,-212.805 2671.77,-209.92 2677.94,-218.533 2681.96,-212.805"/>
<text text-anchor="middle" x="2724.68" y="-231.8" font-family="Times New Roman,serif" font-size="14.00">No</text>
</g>
<!-- 10 -->
<g id="node11" class="node"><title>10</title>
<ellipse fill="none" stroke="black" cx="3130.68" cy="-192" rx="228.26" ry="18"/>
<text text-anchor="middle" x="3130.68" y="-188.3" font-family="Times New Roman,serif" font-size="14.00">{Store} counter_type=Borders prior_numerator=0, value&gt;2</text>
</g>
<!-- 4&#45;&gt;10 -->
<g id="edge10" class="edge"><title>4&#45;&gt;10</title>
<path fill="none" stroke="black" d="M2822.87,-265.275C2883.5,-251.039 2982.27,-227.846 3051.54,-211.583"/>
<polygon fill="black" stroke="black" points="3052.6,-214.928 3061.54,-209.235 3051,-208.114 3052.6,-214.928"/>
<text text-anchor="middle" x="2982.68" y="-231.8" font-family="Times New Roman,serif" font-size="14.00">Yes</text>
</g>
<!-- 11 -->
<g id="node12" class="node"><title>11</title>
<ellipse fill="none" stroke="black" cx="4579.68" cy="-192" rx="228.26" ry="18"/>
<text text-anchor="middle" x="4579.68" y="-188.3" font-family="Times New Roman,serif" font-size="14.00">{Store} counter_type=Borders prior_numerator=0, value&gt;2</text>
</g>
<!-- 5&#45;&gt;11 -->
<g id="edge11" class="edge"><title>5&#45;&gt;11</title>
<path fill="none" stroke="black" d="M4887.48,-265.275C4826.86,-251.039 4728.08,-227.846 4658.82,-211.583"/>
<polygon fill="black" stroke="black" points="4659.36,-208.114 4648.82,-209.235 4657.76,-214.928 4659.36,-208.114"/>
<text text-anchor="middle" x="4791.68" y="-231.8" font-family="Times New Roman,serif" font-size="14.00">No</text>
</g>
<!-- 12 -->
<g id="node13" class="node"><title>12</title>
<ellipse fill="none" stroke="black" cx="5062.68" cy="-192" rx="228.26" ry="18"/>
<text text-anchor="middle" x="5062.68" y="-188.3" font-family="Times New Roman,serif" font-size="14.00">{Store} counter_type=Borders prior_numerator=0, value&gt;2</text>
</g>
<!-- 5&#45;&gt;12 -->
<g id="edge12" class="edge"><title>5&#45;&gt;12</title>
<path fill="none" stroke="black" d="M4965.01,-261.611C4983.52,-248.61 5009.6,-230.286 5030.16,-215.845"/>
<polygon fill="black" stroke="black" points="5032.42,-218.533 5038.59,-209.92 5028.4,-212.805 5032.42,-218.533"/>
<text text-anchor="middle" x="5020.68" y="-231.8" font-family="Times New Roman,serif" font-size="14.00">Yes</text>
</g>
<!-- 13 -->
<g id="node14" class="node"><title>13</title>
<ellipse fill="none" stroke="black" cx="6390.68" cy="-192" rx="228.26" ry="18"/>
<text text-anchor="middle" x="6390.68" y="-188.3" font-family="Times New Roman,serif" font-size="14.00">{Store} counter_type=Borders prior_numerator=0, value&gt;2</text>
</g>
<!-- 6&#45;&gt;13 -->
<g id="edge13" class="edge"><title>6&#45;&gt;13</title>
<path fill="none" stroke="black" d="M6390.68,-260.799C6390.68,-249.163 6390.68,-233.548 6390.68,-220.237"/>
<polygon fill="black" stroke="black" points="6394.18,-220.175 6390.68,-210.175 6387.18,-220.175 6394.18,-220.175"/>
<text text-anchor="middle" x="6399.68" y="-231.8" font-family="Times New Roman,serif" font-size="14.00">No</text>
</g>
<!-- 14 -->
<g id="node15" class="node"><title>14</title>
<ellipse fill="none" stroke="black" cx="6994.68" cy="-192" rx="228.26" ry="18"/>
<text text-anchor="middle" x="6994.68" y="-188.3" font-family="Times New Roman,serif" font-size="14.00">{Store} counter_type=Borders prior_numerator=0, value&gt;2</text>
</g>
<!-- 6&#45;&gt;14 -->
<g id="edge14" class="edge"><title>6&#45;&gt;14</title>
<path fill="none" stroke="black" d="M6458.5,-268.456C6560.29,-254.131 6753.9,-226.885 6878.49,-209.351"/>
<polygon fill="black" stroke="black" points="6879.04,-212.808 6888.46,-207.948 6878.07,-205.876 6879.04,-212.808"/>
<text text-anchor="middle" x="6740.68" y="-231.8" font-family="Times New Roman,serif" font-size="14.00">Yes</text>
</g>
<!-- 15 -->
<g id="node16" class="node"><title>15</title>
<ellipse fill="none" stroke="black" cx="232.679" cy="-105" rx="232.859" ry="18"/>
<text text-anchor="middle" x="232.679" y="-101.3" font-family="Times New Roman,serif" font-size="14.00">{Store} counter_type=Borders prior_numerator=1, value&gt;14</text>
</g>
<!-- 7&#45;&gt;15 -->
<g id="edge15" class="edge"><title>7&#45;&gt;15</title>
<path fill="none" stroke="black" d="M627.09,-175.41C543.568,-160.711 418.595,-138.718 331.794,-123.443"/>
<polygon fill="black" stroke="black" points="332.388,-119.993 321.933,-121.707 331.175,-126.888 332.388,-119.993"/>
<text text-anchor="middle" x="512.679" y="-144.8" font-family="Times New Roman,serif" font-size="14.00">No</text>
</g>
<!-- 16 -->
<g id="node17" class="node"><title>16</title>
<ellipse fill="none" stroke="black" cx="715.679" cy="-105" rx="232.859" ry="18"/>
<text text-anchor="middle" x="715.679" y="-101.3" font-family="Times New Roman,serif" font-size="14.00">{Store} counter_type=Borders prior_numerator=1, value&gt;14</text>
</g>
<!-- 7&#45;&gt;16 -->
<g id="edge16" class="edge"><title>7&#45;&gt;16</title>
<path fill="none" stroke="black" d="M715.679,-173.799C715.679,-162.163 715.679,-146.548 715.679,-133.237"/>
<polygon fill="black" stroke="black" points="719.179,-133.175 715.679,-123.175 712.179,-133.175 719.179,-133.175"/>
<text text-anchor="middle" x="726.679" y="-144.8" font-family="Times New Roman,serif" font-size="14.00">Yes</text>
</g>
<!-- 17 -->
<g id="node18" class="node"><title>17</title>
<ellipse fill="none" stroke="black" cx="1198.68" cy="-105" rx="232.859" ry="18"/>
<text text-anchor="middle" x="1198.68" y="-101.3" font-family="Times New Roman,serif" font-size="14.00">{Store} counter_type=Borders prior_numerator=1, value&gt;14</text>
</g>
<!-- 8&#45;&gt;17 -->
<g id="edge17" class="edge"><title>8&#45;&gt;17</title>
<path fill="none" stroke="black" d="M1295.48,-174.003C1277.02,-161.031 1251.39,-143.03 1231.14,-128.806"/>
<polygon fill="black" stroke="black" points="1233.03,-125.852 1222.83,-122.967 1229,-131.58 1233.03,-125.852"/>
<text text-anchor="middle" x="1275.68" y="-144.8" font-family="Times New Roman,serif" font-size="14.00">No</text>
</g>
<!-- 18 -->
<g id="node19" class="node"><title>18</title>
<ellipse fill="none" stroke="black" cx="1681.68" cy="-105" rx="232.859" ry="18"/>
<text text-anchor="middle" x="1681.68" y="-101.3" font-family="Times New Roman,serif" font-size="14.00">{Store} counter_type=Borders prior_numerator=1, value&gt;14</text>
</g>
<!-- 8&#45;&gt;18 -->
<g id="edge18" class="edge"><title>8&#45;&gt;18</title>
<path fill="none" stroke="black" d="M1388.62,-174.812C1449.67,-160.478 1538.75,-139.561 1602.65,-124.556"/>
<polygon fill="black" stroke="black" points="1603.75,-127.893 1612.69,-122.2 1602.15,-121.079 1603.75,-127.893"/>
<text text-anchor="middle" x="1533.68" y="-144.8" font-family="Times New Roman,serif" font-size="14.00">Yes</text>
</g>
<!-- 19 -->
<g id="node20" class="node"><title>19</title>
<ellipse fill="none" stroke="black" cx="2164.68" cy="-105" rx="232.859" ry="18"/>
<text text-anchor="middle" x="2164.68" y="-101.3" font-family="Times New Roman,serif" font-size="14.00">{Store} counter_type=Borders prior_numerator=1, value&gt;14</text>
</g>
<!-- 9&#45;&gt;19 -->
<g id="edge19" class="edge"><title>9&#45;&gt;19</title>
<path fill="none" stroke="black" d="M2559.09,-175.41C2475.57,-160.711 2350.6,-138.718 2263.79,-123.443"/>
<polygon fill="black" stroke="black" points="2264.39,-119.993 2253.93,-121.707 2263.18,-126.888 2264.39,-119.993"/>
<text text-anchor="middle" x="2444.68" y="-144.8" font-family="Times New Roman,serif" font-size="14.00">No</text>
</g>
<!-- 20 -->
<g id="node21" class="node"><title>20</title>
<ellipse fill="none" stroke="black" cx="2647.68" cy="-105" rx="232.859" ry="18"/>
<text text-anchor="middle" x="2647.68" y="-101.3" font-family="Times New Roman,serif" font-size="14.00">{Store} counter_type=Borders prior_numerator=1, value&gt;14</text>
</g>
<!-- 9&#45;&gt;20 -->
<g id="edge20" class="edge"><title>9&#45;&gt;20</title>
<path fill="none" stroke="black" d="M2647.68,-173.799C2647.68,-162.163 2647.68,-146.548 2647.68,-133.237"/>
<polygon fill="black" stroke="black" points="2651.18,-133.175 2647.68,-123.175 2644.18,-133.175 2651.18,-133.175"/>
<text text-anchor="middle" x="2658.68" y="-144.8" font-family="Times New Roman,serif" font-size="14.00">Yes</text>
</g>
<!-- 21 -->
<g id="node22" class="node"><title>21</title>
<ellipse fill="none" stroke="black" cx="3130.68" cy="-105" rx="232.859" ry="18"/>
<text text-anchor="middle" x="3130.68" y="-101.3" font-family="Times New Roman,serif" font-size="14.00">{Store} counter_type=Borders prior_numerator=1, value&gt;14</text>
</g>
<!-- 10&#45;&gt;21 -->
<g id="edge21" class="edge"><title>10&#45;&gt;21</title>
<path fill="none" stroke="black" d="M3130.68,-173.799C3130.68,-162.163 3130.68,-146.548 3130.68,-133.237"/>
<polygon fill="black" stroke="black" points="3134.18,-133.175 3130.68,-123.175 3127.18,-133.175 3134.18,-133.175"/>
<text text-anchor="middle" x="3139.68" y="-144.8" font-family="Times New Roman,serif" font-size="14.00">No</text>
</g>
<!-- 22 -->
<g id="node23" class="node"><title>22</title>
<ellipse fill="none" stroke="black" cx="3613.68" cy="-105" rx="232.859" ry="18"/>
<text text-anchor="middle" x="3613.68" y="-101.3" font-family="Times New Roman,serif" font-size="14.00">{Store} counter_type=Borders prior_numerator=1, value&gt;14</text>
</g>
<!-- 10&#45;&gt;22 -->
<g id="edge22" class="edge"><title>10&#45;&gt;22</title>
<path fill="none" stroke="black" d="M3219.27,-175.41C3302.79,-160.711 3427.76,-138.718 3514.56,-123.443"/>
<polygon fill="black" stroke="black" points="3515.18,-126.888 3524.43,-121.707 3513.97,-119.993 3515.18,-126.888"/>
<text text-anchor="middle" x="3412.68" y="-144.8" font-family="Times New Roman,serif" font-size="14.00">Yes</text>
</g>
<!-- 23 -->
<g id="node24" class="node"><title>23</title>
<ellipse fill="none" stroke="black" cx="4096.68" cy="-105" rx="232.859" ry="18"/>
<text text-anchor="middle" x="4096.68" y="-101.3" font-family="Times New Roman,serif" font-size="14.00">{Store} counter_type=Borders prior_numerator=1, value&gt;14</text>
</g>
<!-- 11&#45;&gt;23 -->
<g id="edge23" class="edge"><title>11&#45;&gt;23</title>
<path fill="none" stroke="black" d="M4491.09,-175.41C4407.57,-160.711 4282.6,-138.718 4195.79,-123.443"/>
<polygon fill="black" stroke="black" points="4196.39,-119.993 4185.93,-121.707 4195.18,-126.888 4196.39,-119.993"/>
<text text-anchor="middle" x="4376.68" y="-144.8" font-family="Times New Roman,serif" font-size="14.00">No</text>
</g>
<!-- 24 -->
<g id="node25" class="node"><title>24</title>
<ellipse fill="none" stroke="black" cx="4579.68" cy="-105" rx="232.859" ry="18"/>
<text text-anchor="middle" x="4579.68" y="-101.3" font-family="Times New Roman,serif" font-size="14.00">{Store} counter_type=Borders prior_numerator=1, value&gt;14</text>
</g>
<!-- 11&#45;&gt;24 -->
<g id="edge24" class="edge"><title>11&#45;&gt;24</title>
<path fill="none" stroke="black" d="M4579.68,-173.799C4579.68,-162.163 4579.68,-146.548 4579.68,-133.237"/>
<polygon fill="black" stroke="black" points="4583.18,-133.175 4579.68,-123.175 4576.18,-133.175 4583.18,-133.175"/>
<text text-anchor="middle" x="4590.68" y="-144.8" font-family="Times New Roman,serif" font-size="14.00">Yes</text>
</g>
<!-- 25 -->
<g id="node26" class="node"><title>25</title>
<ellipse fill="none" stroke="black" cx="5062.68" cy="-105" rx="232.859" ry="18"/>
<text text-anchor="middle" x="5062.68" y="-101.3" font-family="Times New Roman,serif" font-size="14.00">{Store} counter_type=Borders prior_numerator=1, value&gt;14</text>
</g>
<!-- 12&#45;&gt;25 -->
<g id="edge25" class="edge"><title>12&#45;&gt;25</title>
<path fill="none" stroke="black" d="M5062.68,-173.799C5062.68,-162.163 5062.68,-146.548 5062.68,-133.237"/>
<polygon fill="black" stroke="black" points="5066.18,-133.175 5062.68,-123.175 5059.18,-133.175 5066.18,-133.175"/>
<text text-anchor="middle" x="5071.68" y="-144.8" font-family="Times New Roman,serif" font-size="14.00">No</text>
</g>
<!-- 26 -->
<g id="node27" class="node"><title>26</title>
<ellipse fill="none" stroke="black" cx="5545.68" cy="-105" rx="232.859" ry="18"/>
<text text-anchor="middle" x="5545.68" y="-101.3" font-family="Times New Roman,serif" font-size="14.00">{Store} counter_type=Borders prior_numerator=1, value&gt;14</text>
</g>
<!-- 12&#45;&gt;26 -->
<g id="edge26" class="edge"><title>12&#45;&gt;26</title>
<path fill="none" stroke="black" d="M5151.27,-175.41C5234.79,-160.711 5359.76,-138.718 5446.56,-123.443"/>
<polygon fill="black" stroke="black" points="5447.18,-126.888 5456.43,-121.707 5445.97,-119.993 5447.18,-126.888"/>
<text text-anchor="middle" x="5344.68" y="-144.8" font-family="Times New Roman,serif" font-size="14.00">Yes</text>
</g>
<!-- 27 -->
<g id="node28" class="node"><title>27</title>
<ellipse fill="none" stroke="black" cx="6028.68" cy="-105" rx="232.859" ry="18"/>
<text text-anchor="middle" x="6028.68" y="-101.3" font-family="Times New Roman,serif" font-size="14.00">{Store} counter_type=Borders prior_numerator=1, value&gt;14</text>
</g>
<!-- 13&#45;&gt;27 -->
<g id="edge27" class="edge"><title>13&#45;&gt;27</title>
<path fill="none" stroke="black" d="M6321.74,-174.812C6260.69,-160.478 6171.61,-139.561 6107.7,-124.556"/>
<polygon fill="black" stroke="black" points="6108.21,-121.079 6097.67,-122.2 6106.61,-127.893 6108.21,-121.079"/>
<text text-anchor="middle" x="6240.68" y="-144.8" font-family="Times New Roman,serif" font-size="14.00">No</text>
</g>
<!-- 28 -->
<g id="node29" class="node"><title>28</title>
<ellipse fill="none" stroke="black" cx="6511.68" cy="-105" rx="232.859" ry="18"/>
<text text-anchor="middle" x="6511.68" y="-101.3" font-family="Times New Roman,serif" font-size="14.00">{Store} counter_type=Borders prior_numerator=1, value&gt;14</text>
</g>
<!-- 13&#45;&gt;28 -->
<g id="edge28" class="edge"><title>13&#45;&gt;28</title>
<path fill="none" stroke="black" d="M6414.87,-174.003C6433.34,-161.031 6458.97,-143.03 6479.21,-128.806"/>
<polygon fill="black" stroke="black" points="6481.36,-131.58 6487.53,-122.967 6477.33,-125.852 6481.36,-131.58"/>
<text text-anchor="middle" x="6469.68" y="-144.8" font-family="Times New Roman,serif" font-size="14.00">Yes</text>
</g>
<!-- 29 -->
<g id="node30" class="node"><title>29</title>
<ellipse fill="none" stroke="black" cx="6994.68" cy="-105" rx="232.859" ry="18"/>
<text text-anchor="middle" x="6994.68" y="-101.3" font-family="Times New Roman,serif" font-size="14.00">{Store} counter_type=Borders prior_numerator=1, value&gt;14</text>
</g>
<!-- 14&#45;&gt;29 -->
<g id="edge29" class="edge"><title>14&#45;&gt;29</title>
<path fill="none" stroke="black" d="M6994.68,-173.799C6994.68,-162.163 6994.68,-146.548 6994.68,-133.237"/>
<polygon fill="black" stroke="black" points="6998.18,-133.175 6994.68,-123.175 6991.18,-133.175 6998.18,-133.175"/>
<text text-anchor="middle" x="7003.68" y="-144.8" font-family="Times New Roman,serif" font-size="14.00">No</text>
</g>
<!-- 30 -->
<g id="node31" class="node"><title>30</title>
<ellipse fill="none" stroke="black" cx="7477.68" cy="-105" rx="232.859" ry="18"/>
<text text-anchor="middle" x="7477.68" y="-101.3" font-family="Times New Roman,serif" font-size="14.00">{Store} counter_type=Borders prior_numerator=1, value&gt;14</text>
</g>
<!-- 14&#45;&gt;30 -->
<g id="edge30" class="edge"><title>14&#45;&gt;30</title>
<path fill="none" stroke="black" d="M7083.27,-175.41C7166.79,-160.711 7291.76,-138.718 7378.56,-123.443"/>
<polygon fill="black" stroke="black" points="7379.18,-126.888 7388.43,-121.707 7377.97,-119.993 7379.18,-126.888"/>
<text text-anchor="middle" x="7276.68" y="-144.8" font-family="Times New Roman,serif" font-size="14.00">Yes</text>
</g>
<!-- 31 -->
<g id="node32" class="node"><title>31</title>
<polygon fill="none" stroke="red" points="225.179,-36 108.179,-36 108.179,-0 225.179,-0 225.179,-36"/>
<text text-anchor="middle" x="166.679" y="-14.3" font-family="Times New Roman,serif" font-size="14.00">val = &#45;327156.148</text>
</g>
<!-- 15&#45;&gt;31 -->
<g id="edge31" class="edge"><title>15&#45;&gt;31</title>
<path fill="none" stroke="black" d="M219.323,-86.799C209.841,-74.5865 196.956,-57.9921 186.307,-44.2776"/>
<polygon fill="black" stroke="black" points="188.913,-41.9274 180.016,-36.1754 183.384,-46.2205 188.913,-41.9274"/>
<text text-anchor="middle" x="212.679" y="-57.8" font-family="Times New Roman,serif" font-size="14.00">No</text>
</g>
<!-- 32 -->
<g id="node33" class="node"><title>32</title>
<polygon fill="none" stroke="red" points="353.679,-36 243.679,-36 243.679,-0 353.679,-0 353.679,-36"/>
<text text-anchor="middle" x="298.679" y="-14.3" font-family="Times New Roman,serif" font-size="14.00">val = &#45;48505.163</text>
</g>
<!-- 15&#45;&gt;32 -->
<g id="edge32" class="edge"><title>15&#45;&gt;32</title>
<path fill="none" stroke="black" d="M246.035,-86.799C255.518,-74.5865 268.403,-57.9921 279.052,-44.2776"/>
<polygon fill="black" stroke="black" points="281.975,-46.2205 285.343,-36.1754 276.446,-41.9274 281.975,-46.2205"/>
<text text-anchor="middle" x="280.679" y="-57.8" font-family="Times New Roman,serif" font-size="14.00">Yes</text>
</g>
<!-- 33 -->
<g id="node34" class="node"><title>33</title>
<polygon fill="none" stroke="red" points="705.679,-36 595.679,-36 595.679,-0 705.679,-0 705.679,-36"/>
<text text-anchor="middle" x="650.679" y="-14.3" font-family="Times New Roman,serif" font-size="14.00">val = &#45;78471.516</text>
</g>
<!-- 16&#45;&gt;33 -->
<g id="edge33" class="edge"><title>16&#45;&gt;33</title>
<path fill="none" stroke="black" d="M702.526,-86.799C693.187,-74.5865 680.497,-57.9921 670.009,-44.2776"/>
<polygon fill="black" stroke="black" points="672.668,-41.9929 663.814,-36.1754 667.108,-46.2451 672.668,-41.9929"/>
<text text-anchor="middle" x="696.679" y="-57.8" font-family="Times New Roman,serif" font-size="14.00">No</text>
</g>
<!-- 34 -->
<g id="node35" class="node"><title>34</title>
<polygon fill="none" stroke="red" points="837.179,-36 724.179,-36 724.179,-0 837.179,-0 837.179,-36"/>
<text text-anchor="middle" x="780.679" y="-14.3" font-family="Times New Roman,serif" font-size="14.00">val = 446317.097</text>
</g>
<!-- 16&#45;&gt;34 -->
<g id="edge34" class="edge"><title>16&#45;&gt;34</title>
<path fill="none" stroke="black" d="M728.833,-86.799C738.172,-74.5865 750.862,-57.9921 761.349,-44.2776"/>
<polygon fill="black" stroke="black" points="764.251,-46.2451 767.545,-36.1754 758.69,-41.9929 764.251,-46.2451"/>
<text text-anchor="middle" x="763.679" y="-57.8" font-family="Times New Roman,serif" font-size="14.00">Yes</text>
</g>
<!-- 35 -->
<g id="node36" class="node"><title>35</title>
<polygon fill="none" stroke="red" points="1192.18,-36 1075.18,-36 1075.18,-0 1192.18,-0 1192.18,-36"/>
<text text-anchor="middle" x="1133.68" y="-14.3" font-family="Times New Roman,serif" font-size="14.00">val = &#45;240663.564</text>
</g>
<!-- 17&#45;&gt;35 -->
<g id="edge35" class="edge"><title>17&#45;&gt;35</title>
<path fill="none" stroke="black" d="M1185.53,-86.799C1176.19,-74.5865 1163.5,-57.9921 1153.01,-44.2776"/>
<polygon fill="black" stroke="black" points="1155.67,-41.9929 1146.81,-36.1754 1150.11,-46.2451 1155.67,-41.9929"/>
<text text-anchor="middle" x="1179.68" y="-57.8" font-family="Times New Roman,serif" font-size="14.00">No</text>
</g>
<!-- 36 -->
<g id="node37" class="node"><title>36</title>
<polygon fill="none" stroke="red" points="1316.68,-36 1210.68,-36 1210.68,-0 1316.68,-0 1316.68,-36"/>
<text text-anchor="middle" x="1263.68" y="-14.3" font-family="Times New Roman,serif" font-size="14.00">val = 52253.128</text>
</g>
<!-- 17&#45;&gt;36 -->
<g id="edge36" class="edge"><title>17&#45;&gt;36</title>
<path fill="none" stroke="black" d="M1211.83,-86.799C1221.17,-74.5865 1233.86,-57.9921 1244.35,-44.2776"/>
<polygon fill="black" stroke="black" points="1247.25,-46.2451 1250.55,-36.1754 1241.69,-41.9929 1247.25,-46.2451"/>
<text text-anchor="middle" x="1246.68" y="-57.8" font-family="Times New Roman,serif" font-size="14.00">Yes</text>
</g>
<!-- 37 -->
<g id="node38" class="node"><title>37</title>
<polygon fill="none" stroke="red" points="1671.68,-36 1561.68,-36 1561.68,-0 1671.68,-0 1671.68,-36"/>
<text text-anchor="middle" x="1616.68" y="-14.3" font-family="Times New Roman,serif" font-size="14.00">val = &#45;39074.193</text>
</g>
<!-- 18&#45;&gt;37 -->
<g id="edge37" class="edge"><title>18&#45;&gt;37</title>
<path fill="none" stroke="black" d="M1668.53,-86.799C1659.19,-74.5865 1646.5,-57.9921 1636.01,-44.2776"/>
<polygon fill="black" stroke="black" points="1638.67,-41.9929 1629.81,-36.1754 1633.11,-46.2451 1638.67,-41.9929"/>
<text text-anchor="middle" x="1662.68" y="-57.8" font-family="Times New Roman,serif" font-size="14.00">No</text>
</g>
<!-- 38 -->
<g id="node39" class="node"><title>38</title>
<polygon fill="none" stroke="red" points="1803.18,-36 1690.18,-36 1690.18,-0 1803.18,-0 1803.18,-36"/>
<text text-anchor="middle" x="1746.68" y="-14.3" font-family="Times New Roman,serif" font-size="14.00">val = 254729.735</text>
</g>
<!-- 18&#45;&gt;38 -->
<g id="edge38" class="edge"><title>18&#45;&gt;38</title>
<path fill="none" stroke="black" d="M1694.83,-86.799C1704.17,-74.5865 1716.86,-57.9921 1727.35,-44.2776"/>
<polygon fill="black" stroke="black" points="1730.25,-46.2451 1733.55,-36.1754 1724.69,-41.9929 1730.25,-46.2451"/>
<text text-anchor="middle" x="1729.68" y="-57.8" font-family="Times New Roman,serif" font-size="14.00">Yes</text>
</g>
<!-- 39 -->
<g id="node40" class="node"><title>39</title>
<polygon fill="none" stroke="red" points="2157.18,-36 2040.18,-36 2040.18,-0 2157.18,-0 2157.18,-36"/>
<text text-anchor="middle" x="2098.68" y="-14.3" font-family="Times New Roman,serif" font-size="14.00">val = &#45;296446.460</text>
</g>
<!-- 19&#45;&gt;39 -->
<g id="edge39" class="edge"><title>19&#45;&gt;39</title>
<path fill="none" stroke="black" d="M2151.32,-86.799C2141.84,-74.5865 2128.96,-57.9921 2118.31,-44.2776"/>
<polygon fill="black" stroke="black" points="2120.91,-41.9274 2112.02,-36.1754 2115.38,-46.2205 2120.91,-41.9274"/>
<text text-anchor="middle" x="2144.68" y="-57.8" font-family="Times New Roman,serif" font-size="14.00">No</text>
</g>
<!-- 40 -->
<g id="node41" class="node"><title>40</title>
<polygon fill="none" stroke="red" points="2285.68,-36 2175.68,-36 2175.68,-0 2285.68,-0 2285.68,-36"/>
<text text-anchor="middle" x="2230.68" y="-14.3" font-family="Times New Roman,serif" font-size="14.00">val = &#45;14496.328</text>
</g>
<!-- 19&#45;&gt;40 -->
<g id="edge40" class="edge"><title>19&#45;&gt;40</title>
<path fill="none" stroke="black" d="M2178.04,-86.799C2187.52,-74.5865 2200.4,-57.9921 2211.05,-44.2776"/>
<polygon fill="black" stroke="black" points="2213.97,-46.2205 2217.34,-36.1754 2208.45,-41.9274 2213.97,-46.2205"/>
<text text-anchor="middle" x="2212.68" y="-57.8" font-family="Times New Roman,serif" font-size="14.00">Yes</text>
</g>
<!-- 41 -->
<g id="node42" class="node"><title>41</title>
<polygon fill="none" stroke="red" points="2637.68,-36 2527.68,-36 2527.68,-0 2637.68,-0 2637.68,-36"/>
<text text-anchor="middle" x="2582.68" y="-14.3" font-family="Times New Roman,serif" font-size="14.00">val = &#45;35897.496</text>
</g>
<!-- 20&#45;&gt;41 -->
<g id="edge41" class="edge"><title>20&#45;&gt;41</title>
<path fill="none" stroke="black" d="M2634.53,-86.799C2625.19,-74.5865 2612.5,-57.9921 2602.01,-44.2776"/>
<polygon fill="black" stroke="black" points="2604.67,-41.9929 2595.81,-36.1754 2599.11,-46.2451 2604.67,-41.9929"/>
<text text-anchor="middle" x="2628.68" y="-57.8" font-family="Times New Roman,serif" font-size="14.00">No</text>
</g>
<!-- 42 -->
<g id="node43" class="node"><title>42</title>
<polygon fill="none" stroke="red" points="2769.18,-36 2656.18,-36 2656.18,-0 2769.18,-0 2769.18,-36"/>
<text text-anchor="middle" x="2712.68" y="-14.3" font-family="Times New Roman,serif" font-size="14.00">val = 402562.176</text>
</g>
<!-- 20&#45;&gt;42 -->
<g id="edge42" class="edge"><title>20&#45;&gt;42</title>
<path fill="none" stroke="black" d="M2660.83,-86.799C2670.17,-74.5865 2682.86,-57.9921 2693.35,-44.2776"/>
<polygon fill="black" stroke="black" points="2696.25,-46.2451 2699.55,-36.1754 2690.69,-41.9929 2696.25,-46.2451"/>
<text text-anchor="middle" x="2695.68" y="-57.8" font-family="Times New Roman,serif" font-size="14.00">Yes</text>
</g>
<!-- 43 -->
<g id="node44" class="node"><title>43</title>
<polygon fill="none" stroke="red" points="3123.18,-36 3006.18,-36 3006.18,-0 3123.18,-0 3123.18,-36"/>
<text text-anchor="middle" x="3064.68" y="-14.3" font-family="Times New Roman,serif" font-size="14.00">val = &#45;229247.947</text>
</g>
<!-- 21&#45;&gt;43 -->
<g id="edge43" class="edge"><title>21&#45;&gt;43</title>
<path fill="none" stroke="black" d="M3117.32,-86.799C3107.84,-74.5865 3094.96,-57.9921 3084.31,-44.2776"/>
<polygon fill="black" stroke="black" points="3086.91,-41.9274 3078.02,-36.1754 3081.38,-46.2205 3086.91,-41.9274"/>
<text text-anchor="middle" x="3110.68" y="-57.8" font-family="Times New Roman,serif" font-size="14.00">No</text>
</g>
<!-- 44 -->
<g id="node45" class="node"><title>44</title>
<polygon fill="none" stroke="red" points="3251.68,-36 3141.68,-36 3141.68,-0 3251.68,-0 3251.68,-36"/>
<text text-anchor="middle" x="3196.68" y="-14.3" font-family="Times New Roman,serif" font-size="14.00">val = &#45;75795.868</text>
</g>
<!-- 21&#45;&gt;44 -->
<g id="edge44" class="edge"><title>21&#45;&gt;44</title>
<path fill="none" stroke="black" d="M3144.04,-86.799C3153.52,-74.5865 3166.4,-57.9921 3177.05,-44.2776"/>
<polygon fill="black" stroke="black" points="3179.97,-46.2205 3183.34,-36.1754 3174.45,-41.9274 3179.97,-46.2205"/>
<text text-anchor="middle" x="3178.68" y="-57.8" font-family="Times New Roman,serif" font-size="14.00">Yes</text>
</g>
<!-- 45 -->
<g id="node46" class="node"><title>45</title>
<polygon fill="none" stroke="red" points="3602.68,-36 3496.68,-36 3496.68,-0 3602.68,-0 3602.68,-36"/>
<text text-anchor="middle" x="3549.68" y="-14.3" font-family="Times New Roman,serif" font-size="14.00">val = 10390.007</text>
</g>
<!-- 22&#45;&gt;45 -->
<g id="edge45" class="edge"><title>22&#45;&gt;45</title>
<path fill="none" stroke="black" d="M3600.73,-86.799C3591.53,-74.5865 3579.04,-57.9921 3568.71,-44.2776"/>
<polygon fill="black" stroke="black" points="3571.42,-42.0589 3562.61,-36.1754 3565.83,-46.2694 3571.42,-42.0589"/>
<text text-anchor="middle" x="3594.68" y="-57.8" font-family="Times New Roman,serif" font-size="14.00">No</text>
</g>
<!-- 46 -->
<g id="node47" class="node"><title>46</title>
<polygon fill="none" stroke="red" points="3734.18,-36 3621.18,-36 3621.18,-0 3734.18,-0 3734.18,-36"/>
<text text-anchor="middle" x="3677.68" y="-14.3" font-family="Times New Roman,serif" font-size="14.00">val = 120722.452</text>
</g>
<!-- 22&#45;&gt;46 -->
<g id="edge46" class="edge"><title>22&#45;&gt;46</title>
<path fill="none" stroke="black" d="M3626.63,-86.799C3635.83,-74.5865 3648.32,-57.9921 3658.65,-44.2776"/>
<polygon fill="black" stroke="black" points="3661.53,-46.2694 3664.75,-36.1754 3655.94,-42.0589 3661.53,-46.2694"/>
<text text-anchor="middle" x="3660.68" y="-57.8" font-family="Times New Roman,serif" font-size="14.00">Yes</text>
</g>
<!-- 47 -->
<g id="node48" class="node"><title>47</title>
<polygon fill="none" stroke="red" points="4097.18,-36 3980.18,-36 3980.18,-0 4097.18,-0 4097.18,-36"/>
<text text-anchor="middle" x="4038.68" y="-14.3" font-family="Times New Roman,serif" font-size="14.00">val = &#45;282834.430</text>
</g>
<!-- 23&#45;&gt;47 -->
<g id="edge47" class="edge"><title>23&#45;&gt;47</title>
<path fill="none" stroke="black" d="M4084.94,-86.799C4076.69,-74.7017 4065.5,-58.3049 4056.19,-44.6665"/>
<polygon fill="black" stroke="black" points="4058.93,-42.4629 4050.4,-36.1754 4053.14,-46.4084 4058.93,-42.4629"/>
<text text-anchor="middle" x="4080.68" y="-57.8" font-family="Times New Roman,serif" font-size="14.00">No</text>
</g>
<!-- 48 -->
<g id="node49" class="node"><title>48</title>
<polygon fill="none" stroke="red" points="4194.18,-36 4115.18,-36 4115.18,-0 4194.18,-0 4194.18,-36"/>
<text text-anchor="middle" x="4154.68" y="-14.3" font-family="Times New Roman,serif" font-size="14.00">val = 0.000</text>
</g>
<!-- 23&#45;&gt;48 -->
<g id="edge48" class="edge"><title>23&#45;&gt;48</title>
<path fill="none" stroke="black" d="M4108.42,-86.799C4116.67,-74.7017 4127.86,-58.3049 4137.17,-44.6665"/>
<polygon fill="black" stroke="black" points="4140.21,-46.4084 4142.96,-36.1754 4134.43,-42.4629 4140.21,-46.4084"/>
<text text-anchor="middle" x="4140.68" y="-57.8" font-family="Times New Roman,serif" font-size="14.00">Yes</text>
</g>
<!-- 49 -->
<g id="node50" class="node"><title>49</title>
<polygon fill="none" stroke="red" points="4569.68,-36 4459.68,-36 4459.68,-0 4569.68,-0 4569.68,-36"/>
<text text-anchor="middle" x="4514.68" y="-14.3" font-family="Times New Roman,serif" font-size="14.00">val = &#45;24072.259</text>
</g>
<!-- 24&#45;&gt;49 -->
<g id="edge49" class="edge"><title>24&#45;&gt;49</title>
<path fill="none" stroke="black" d="M4566.53,-86.799C4557.19,-74.5865 4544.5,-57.9921 4534.01,-44.2776"/>
<polygon fill="black" stroke="black" points="4536.67,-41.9929 4527.81,-36.1754 4531.11,-46.2451 4536.67,-41.9929"/>
<text text-anchor="middle" x="4560.68" y="-57.8" font-family="Times New Roman,serif" font-size="14.00">No</text>
</g>
<!-- 50 -->
<g id="node51" class="node"><title>50</title>
<polygon fill="none" stroke="red" points="4701.18,-36 4588.18,-36 4588.18,-0 4701.18,-0 4701.18,-36"/>
<text text-anchor="middle" x="4644.68" y="-14.3" font-family="Times New Roman,serif" font-size="14.00">val = 370968.586</text>
</g>
<!-- 24&#45;&gt;50 -->
<g id="edge50" class="edge"><title>24&#45;&gt;50</title>
<path fill="none" stroke="black" d="M4592.83,-86.799C4602.17,-74.5865 4614.86,-57.9921 4625.35,-44.2776"/>
<polygon fill="black" stroke="black" points="4628.25,-46.2451 4631.55,-36.1754 4622.69,-41.9929 4628.25,-46.2451"/>
<text text-anchor="middle" x="4627.68" y="-57.8" font-family="Times New Roman,serif" font-size="14.00">Yes</text>
</g>
<!-- 51 -->
<g id="node52" class="node"><title>51</title>
<polygon fill="none" stroke="red" points="5055.18,-36 4938.18,-36 4938.18,-0 5055.18,-0 5055.18,-36"/>
<text text-anchor="middle" x="4996.68" y="-14.3" font-family="Times New Roman,serif" font-size="14.00">val = &#45;211080.510</text>
</g>
<!-- 25&#45;&gt;51 -->
<g id="edge51" class="edge"><title>25&#45;&gt;51</title>
<path fill="none" stroke="black" d="M5049.32,-86.799C5039.84,-74.5865 5026.96,-57.9921 5016.31,-44.2776"/>
<polygon fill="black" stroke="black" points="5018.91,-41.9274 5010.02,-36.1754 5013.38,-46.2205 5018.91,-41.9274"/>
<text text-anchor="middle" x="5042.68" y="-57.8" font-family="Times New Roman,serif" font-size="14.00">No</text>
</g>
<!-- 52 -->
<g id="node53" class="node"><title>52</title>
<polygon fill="none" stroke="red" points="5183.68,-36 5073.68,-36 5073.68,-0 5183.68,-0 5183.68,-36"/>
<text text-anchor="middle" x="5128.68" y="-14.3" font-family="Times New Roman,serif" font-size="14.00">val = &#45;69797.021</text>
</g>
<!-- 25&#45;&gt;52 -->
<g id="edge52" class="edge"><title>25&#45;&gt;52</title>
<path fill="none" stroke="black" d="M5076.04,-86.799C5085.52,-74.5865 5098.4,-57.9921 5109.05,-44.2776"/>
<polygon fill="black" stroke="black" points="5111.97,-46.2205 5115.34,-36.1754 5106.45,-41.9274 5111.97,-46.2205"/>
<text text-anchor="middle" x="5110.68" y="-57.8" font-family="Times New Roman,serif" font-size="14.00">Yes</text>
</g>
<!-- 53 -->
<g id="node54" class="node"><title>53</title>
<polygon fill="none" stroke="red" points="5534.68,-36 5428.68,-36 5428.68,-0 5534.68,-0 5534.68,-36"/>
<text text-anchor="middle" x="5481.68" y="-14.3" font-family="Times New Roman,serif" font-size="14.00">val = 20430.728</text>
</g>
<!-- 26&#45;&gt;53 -->
<g id="edge53" class="edge"><title>26&#45;&gt;53</title>
<path fill="none" stroke="black" d="M5532.73,-86.799C5523.53,-74.5865 5511.04,-57.9921 5500.71,-44.2776"/>
<polygon fill="black" stroke="black" points="5503.42,-42.0589 5494.61,-36.1754 5497.83,-46.2694 5503.42,-42.0589"/>
<text text-anchor="middle" x="5526.68" y="-57.8" font-family="Times New Roman,serif" font-size="14.00">No</text>
</g>
<!-- 54 -->
<g id="node55" class="node"><title>54</title>
<polygon fill="none" stroke="red" points="5666.18,-36 5553.18,-36 5553.18,-0 5666.18,-0 5666.18,-36"/>
<text text-anchor="middle" x="5609.68" y="-14.3" font-family="Times New Roman,serif" font-size="14.00">val = 291256.156</text>
</g>
<!-- 26&#45;&gt;54 -->
<g id="edge54" class="edge"><title>26&#45;&gt;54</title>
<path fill="none" stroke="black" d="M5558.63,-86.799C5567.83,-74.5865 5580.32,-57.9921 5590.65,-44.2776"/>
<polygon fill="black" stroke="black" points="5593.53,-46.2694 5596.75,-36.1754 5587.94,-42.0589 5593.53,-46.2694"/>
<text text-anchor="middle" x="5592.68" y="-57.8" font-family="Times New Roman,serif" font-size="14.00">Yes</text>
</g>
<!-- 55 -->
<g id="node56" class="node"><title>55</title>
<polygon fill="none" stroke="red" points="6029.18,-36 5912.18,-36 5912.18,-0 6029.18,-0 6029.18,-36"/>
<text text-anchor="middle" x="5970.68" y="-14.3" font-family="Times New Roman,serif" font-size="14.00">val = &#45;234278.616</text>
</g>
<!-- 27&#45;&gt;55 -->
<g id="edge55" class="edge"><title>27&#45;&gt;55</title>
<path fill="none" stroke="black" d="M6016.94,-86.799C6008.69,-74.7017 5997.5,-58.3049 5988.19,-44.6665"/>
<polygon fill="black" stroke="black" points="5990.93,-42.4629 5982.4,-36.1754 5985.14,-46.4084 5990.93,-42.4629"/>
<text text-anchor="middle" x="6012.68" y="-57.8" font-family="Times New Roman,serif" font-size="14.00">No</text>
</g>
<!-- 56 -->
<g id="node57" class="node"><title>56</title>
<polygon fill="none" stroke="red" points="6126.18,-36 6047.18,-36 6047.18,-0 6126.18,-0 6126.18,-36"/>
<text text-anchor="middle" x="6086.68" y="-14.3" font-family="Times New Roman,serif" font-size="14.00">val = 0.000</text>
</g>
<!-- 27&#45;&gt;56 -->
<g id="edge56" class="edge"><title>27&#45;&gt;56</title>
<path fill="none" stroke="black" d="M6040.42,-86.799C6048.67,-74.7017 6059.86,-58.3049 6069.17,-44.6665"/>
<polygon fill="black" stroke="black" points="6072.21,-46.4084 6074.96,-36.1754 6066.43,-42.4629 6072.21,-46.4084"/>
<text text-anchor="middle" x="6072.68" y="-57.8" font-family="Times New Roman,serif" font-size="14.00">Yes</text>
</g>
<!-- 57 -->
<g id="node58" class="node"><title>57</title>
<polygon fill="none" stroke="red" points="6500.68,-36 6394.68,-36 6394.68,-0 6500.68,-0 6500.68,-36"/>
<text text-anchor="middle" x="6447.68" y="-14.3" font-family="Times New Roman,serif" font-size="14.00">val = 25288.753</text>
</g>
<!-- 28&#45;&gt;57 -->
<g id="edge57" class="edge"><title>28&#45;&gt;57</title>
<path fill="none" stroke="black" d="M6498.73,-86.799C6489.53,-74.5865 6477.04,-57.9921 6466.71,-44.2776"/>
<polygon fill="black" stroke="black" points="6469.42,-42.0589 6460.61,-36.1754 6463.83,-46.2694 6469.42,-42.0589"/>
<text text-anchor="middle" x="6492.68" y="-57.8" font-family="Times New Roman,serif" font-size="14.00">No</text>
</g>
<!-- 58 -->
<g id="node59" class="node"><title>58</title>
<polygon fill="none" stroke="red" points="6632.18,-36 6519.18,-36 6519.18,-0 6632.18,-0 6632.18,-36"/>
<text text-anchor="middle" x="6575.68" y="-14.3" font-family="Times New Roman,serif" font-size="14.00">val = 207683.448</text>
</g>
<!-- 28&#45;&gt;58 -->
<g id="edge58" class="edge"><title>28&#45;&gt;58</title>
<path fill="none" stroke="black" d="M6524.63,-86.799C6533.83,-74.5865 6546.32,-57.9921 6556.65,-44.2776"/>
<polygon fill="black" stroke="black" points="6559.53,-46.2694 6562.75,-36.1754 6553.94,-42.0589 6559.53,-46.2694"/>
<text text-anchor="middle" x="6558.68" y="-57.8" font-family="Times New Roman,serif" font-size="14.00">Yes</text>
</g>
<!-- 59 -->
<g id="node60" class="node"><title>59</title>
<polygon fill="none" stroke="red" points="6987.18,-36 6870.18,-36 6870.18,-0 6987.18,-0 6987.18,-36"/>
<text text-anchor="middle" x="6928.68" y="-14.3" font-family="Times New Roman,serif" font-size="14.00">val = &#45;183132.982</text>
</g>
<!-- 29&#45;&gt;59 -->
<g id="edge59" class="edge"><title>29&#45;&gt;59</title>
<path fill="none" stroke="black" d="M6981.32,-86.799C6971.84,-74.5865 6958.96,-57.9921 6948.31,-44.2776"/>
<polygon fill="black" stroke="black" points="6950.91,-41.9274 6942.02,-36.1754 6945.38,-46.2205 6950.91,-41.9274"/>
<text text-anchor="middle" x="6974.68" y="-57.8" font-family="Times New Roman,serif" font-size="14.00">No</text>
</g>
<!-- 60 -->
<g id="node61" class="node"><title>60</title>
<polygon fill="none" stroke="red" points="7115.68,-36 7005.68,-36 7005.68,-0 7115.68,-0 7115.68,-36"/>
<text text-anchor="middle" x="7060.68" y="-14.3" font-family="Times New Roman,serif" font-size="14.00">val = &#45;25253.656</text>
</g>
<!-- 29&#45;&gt;60 -->
<g id="edge60" class="edge"><title>29&#45;&gt;60</title>
<path fill="none" stroke="black" d="M7008.04,-86.799C7017.52,-74.5865 7030.4,-57.9921 7041.05,-44.2776"/>
<polygon fill="black" stroke="black" points="7043.97,-46.2205 7047.34,-36.1754 7038.45,-41.9274 7043.97,-46.2205"/>
<text text-anchor="middle" x="7042.68" y="-57.8" font-family="Times New Roman,serif" font-size="14.00">Yes</text>
</g>
<!-- 61 -->
<g id="node62" class="node"><title>61</title>
<polygon fill="none" stroke="red" points="7468.68,-36 7362.68,-36 7362.68,-0 7468.68,-0 7468.68,-36"/>
<text text-anchor="middle" x="7415.68" y="-14.3" font-family="Times New Roman,serif" font-size="14.00">val = 13959.906</text>
</g>
<!-- 30&#45;&gt;61 -->
<g id="edge61" class="edge"><title>30&#45;&gt;61</title>
<path fill="none" stroke="black" d="M7465.13,-86.799C7456.22,-74.5865 7444.12,-57.9921 7434.12,-44.2776"/>
<polygon fill="black" stroke="black" points="7436.93,-42.192 7428.21,-36.1754 7431.27,-46.3172 7436.93,-42.192"/>
<text text-anchor="middle" x="7459.68" y="-57.8" font-family="Times New Roman,serif" font-size="14.00">No</text>
</g>
<!-- 62 -->
<g id="node63" class="node"><title>62</title>
<polygon fill="none" stroke="red" points="7592.68,-36 7486.68,-36 7486.68,-0 7592.68,-0 7592.68,-36"/>
<text text-anchor="middle" x="7539.68" y="-14.3" font-family="Times New Roman,serif" font-size="14.00">val = 78776.723</text>
</g>
<!-- 30&#45;&gt;62 -->
<g id="edge62" class="edge"><title>30&#45;&gt;62</title>
<path fill="none" stroke="black" d="M7490.23,-86.799C7499.13,-74.5865 7511.24,-57.9921 7521.24,-44.2776"/>
<polygon fill="black" stroke="black" points="7524.09,-46.3172 7527.15,-36.1754 7518.43,-42.192 7524.09,-46.3172"/>
<text text-anchor="middle" x="7523.68" y="-57.8" font-family="Times New Roman,serif" font-size="14.00">Yes</text>
</g>
</g>
</svg>
