<?xml version="1.0" encoding="UTF-8" standalone="no"?>
<!DOCTYPE svg PUBLIC "-//W3C//DTD SVG 1.1//EN"
 "http://www.w3.org/Graphics/SVG/1.1/DTD/svg11.dtd">
<!-- Generated by graphviz version 2.38.0 (20140413.2041)
 -->
<!-- Title: %3 Pages: 1 -->
<svg width="563pt" height="883pt"
 viewBox="0.00 0.00 562.90 883.25" xmlns="http://www.w3.org/2000/svg" xmlns:xlink="http://www.w3.org/1999/xlink">
<g id="graph0" class="graph" transform="scale(1 1) rotate(0) translate(4 879.25)">
<title>%3</title>
<polygon fill="white" stroke="none" points="-4,4 -4,-879.25 558.903,-879.25 558.903,4 -4,4"/>
<text text-anchor="middle" x="277.452" y="-856.85" font-family="Times New Roman,serif" font-size="18.00">Self&#45;organizing deep learning polynomial neural network</text>
<text text-anchor="middle" x="277.452" y="-836.85" font-family="Times New Roman,serif" font-size="18.00"> </text>
<!-- OUTPUT -->
<g id="node1" class="node"><title>OUTPUT</title>
<ellipse fill="#ff9c34" stroke="#f89939" cx="101.326" cy="-18" rx="38.3335" ry="18"/>
<text text-anchor="middle" x="101.326" y="-14.9" font-family="Times New Roman,serif" font-size="12.00" fill="white">OUTPUT</text>
</g>
<!-- F0
Store -->
<g id="node2" class="node"><title>F0
Store</title>
<ellipse fill="#ff9c34" stroke="#f89939" cx="302.326" cy="-803.208" rx="28.9828" ry="24.0833"/>
<text text-anchor="middle" x="302.326" y="-806.608" font-family="Times New Roman,serif" font-size="12.00" fill="white">F0</text>
<text text-anchor="middle" x="302.326" y="-793.608" font-family="Times New Roman,serif" font-size="12.00" fill="white">Store</text>
</g>
<!-- layer 0
neuron 0
quadratic -->
<g id="node9" class="node"><title>layer 0
neuron 0
quadratic</title>
<polygon fill="#cde8ef" stroke="#cde8ef" points="388.326,-743.167 334.326,-743.167 334.326,-702.167 388.326,-702.167 388.326,-743.167"/>
<text text-anchor="middle" x="361.326" y="-731.167" font-family="Times New Roman,serif" font-size="10.00">layer 0</text>
<text text-anchor="middle" x="361.326" y="-720.167" font-family="Times New Roman,serif" font-size="10.00">neuron 0</text>
<text text-anchor="middle" x="361.326" y="-709.167" font-family="Times New Roman,serif" font-size="10.00">quadratic</text>
</g>
<!-- F0
Store&#45;&gt;layer 0
neuron 0
quadratic -->
<g id="edge1" class="edge"><title>F0
Store&#45;&gt;layer 0
neuron 0
quadratic</title>
<path fill="none" stroke="#cde8ef" d="M317.214,-782.389C324.255,-773.016 332.781,-761.665 340.454,-751.451"/>
<polygon fill="#3499cd" stroke="#cde8ef" points="343.439,-753.305 346.647,-743.207 337.842,-749.101 343.439,-753.305"/>
</g>
<!-- layer 0
neuron 1
linear cov -->
<g id="node10" class="node"><title>layer 0
neuron 1
linear cov</title>
<polygon fill="#cde8ef" stroke="#cde8ef" points="316.326,-743.167 260.326,-743.167 260.326,-702.167 316.326,-702.167 316.326,-743.167"/>
<text text-anchor="middle" x="288.326" y="-731.167" font-family="Times New Roman,serif" font-size="10.00">layer 0</text>
<text text-anchor="middle" x="288.326" y="-720.167" font-family="Times New Roman,serif" font-size="10.00">neuron 1</text>
<text text-anchor="middle" x="288.326" y="-709.167" font-family="Times New Roman,serif" font-size="10.00">linear cov</text>
</g>
<!-- F0
Store&#45;&gt;layer 0
neuron 1
linear cov -->
<g id="edge3" class="edge"><title>F0
Store&#45;&gt;layer 0
neuron 1
linear cov</title>
<path fill="none" stroke="#cde8ef" d="M298.201,-779.068C296.756,-770.961 295.113,-761.744 293.588,-753.187"/>
<polygon fill="#3499cd" stroke="#cde8ef" points="297.007,-752.425 291.807,-743.195 290.116,-753.654 297.007,-752.425"/>
</g>
<!-- layer 0
neuron 2
quadratic -->
<g id="node11" class="node"><title>layer 0
neuron 2
quadratic</title>
<polygon fill="#cde8ef" stroke="#cde8ef" points="170.326,-743.167 116.326,-743.167 116.326,-702.167 170.326,-702.167 170.326,-743.167"/>
<text text-anchor="middle" x="143.326" y="-731.167" font-family="Times New Roman,serif" font-size="10.00">layer 0</text>
<text text-anchor="middle" x="143.326" y="-720.167" font-family="Times New Roman,serif" font-size="10.00">neuron 2</text>
<text text-anchor="middle" x="143.326" y="-709.167" font-family="Times New Roman,serif" font-size="10.00">quadratic</text>
</g>
<!-- F0
Store&#45;&gt;layer 0
neuron 2
quadratic -->
<g id="edge5" class="edge"><title>F0
Store&#45;&gt;layer 0
neuron 2
quadratic</title>
<path fill="none" stroke="#cde8ef" d="M279.723,-787.772C274.728,-784.789 269.409,-781.767 264.326,-779.167 230.369,-761.796 218.036,-760.985 179.835,-743.19"/>
<polygon fill="#3499cd" stroke="#cde8ef" points="181.237,-739.981 170.703,-738.846 178.23,-746.302 181.237,-739.981"/>
</g>
<!-- layer 0
neuron 3
cubic -->
<g id="node12" class="node"><title>layer 0
neuron 3
cubic</title>
<polygon fill="#cde8ef" stroke="#cde8ef" points="242.326,-743.167 188.326,-743.167 188.326,-702.167 242.326,-702.167 242.326,-743.167"/>
<text text-anchor="middle" x="215.326" y="-731.167" font-family="Times New Roman,serif" font-size="10.00">layer 0</text>
<text text-anchor="middle" x="215.326" y="-720.167" font-family="Times New Roman,serif" font-size="10.00">neuron 3</text>
<text text-anchor="middle" x="215.326" y="-709.167" font-family="Times New Roman,serif" font-size="10.00">cubic</text>
</g>
<!-- F0
Store&#45;&gt;layer 0
neuron 3
cubic -->
<g id="edge7" class="edge"><title>F0
Store&#45;&gt;layer 0
neuron 3
cubic</title>
<path fill="none" stroke="#cde8ef" d="M283.018,-784.777C271.742,-774.597 257.286,-761.547 244.63,-750.122"/>
<polygon fill="#3499cd" stroke="#cde8ef" points="246.795,-747.361 237.027,-743.258 242.105,-752.557 246.795,-747.361"/>
</g>
<!-- layer 1
neuron 3
linear cov -->
<g id="node16" class="node"><title>layer 1
neuron 3
linear cov</title>
<polygon fill="#cde8ef" stroke="#cde8ef" points="426.326,-666.167 370.326,-666.167 370.326,-625.167 426.326,-625.167 426.326,-666.167"/>
<text text-anchor="middle" x="398.326" y="-654.167" font-family="Times New Roman,serif" font-size="10.00">layer 1</text>
<text text-anchor="middle" x="398.326" y="-643.167" font-family="Times New Roman,serif" font-size="10.00">neuron 3</text>
<text text-anchor="middle" x="398.326" y="-632.167" font-family="Times New Roman,serif" font-size="10.00">linear cov</text>
</g>
<!-- F0
Store&#45;&gt;layer 1
neuron 3
linear cov -->
<g id="edge16" class="edge"><title>F0
Store&#45;&gt;layer 1
neuron 3
linear cov</title>
<path fill="none" stroke="#cde8ef" d="M329.011,-793.801C351.668,-785.091 382.756,-769.059 397.326,-743.167 408.73,-722.899 408.062,-696.24 405.059,-676.079"/>
<polygon fill="#3499cd" stroke="#cde8ef" points="408.501,-675.443 403.328,-666.197 401.606,-676.651 408.501,-675.443"/>
</g>
<!-- F1
Week -->
<g id="node3" class="node"><title>F1
Week</title>
<ellipse fill="#ff9c34" stroke="#f89939" cx="111.326" cy="-257.125" rx="31.2258" ry="24.0833"/>
<text text-anchor="middle" x="111.326" y="-260.525" font-family="Times New Roman,serif" font-size="12.00" fill="white">F1</text>
<text text-anchor="middle" x="111.326" y="-247.525" font-family="Times New Roman,serif" font-size="12.00" fill="white">Week</text>
</g>
<!-- layer 7
neuron 0
linear cov -->
<g id="node27" class="node"><title>layer 7
neuron 0
linear cov</title>
<polygon fill="#cde8ef" stroke="#cde8ef" points="178.326,-193.542 122.326,-193.542 122.326,-152.542 178.326,-152.542 178.326,-193.542"/>
<text text-anchor="middle" x="150.326" y="-181.542" font-family="Times New Roman,serif" font-size="10.00">layer 7</text>
<text text-anchor="middle" x="150.326" y="-170.542" font-family="Times New Roman,serif" font-size="10.00">neuron 0</text>
<text text-anchor="middle" x="150.326" y="-159.542" font-family="Times New Roman,serif" font-size="10.00">linear cov</text>
</g>
<!-- F1
Week&#45;&gt;layer 7
neuron 0
linear cov -->
<g id="edge38" class="edge"><title>F1
Week&#45;&gt;layer 7
neuron 0
linear cov</title>
<path fill="none" stroke="#cde8ef" d="M121.777,-234.128C126.372,-224.457 131.829,-212.973 136.734,-202.648"/>
<polygon fill="#3499cd" stroke="#cde8ef" points="139.914,-204.112 141.044,-193.577 133.591,-201.107 139.914,-204.112"/>
</g>
<!-- F2
Year -->
<g id="node4" class="node"><title>F2
Year</title>
<ellipse fill="#ff9c34" stroke="#f89939" cx="527.326" cy="-803.208" rx="27.6545" ry="24.0833"/>
<text text-anchor="middle" x="527.326" y="-806.608" font-family="Times New Roman,serif" font-size="12.00" fill="white">F2</text>
<text text-anchor="middle" x="527.326" y="-793.608" font-family="Times New Roman,serif" font-size="12.00" fill="white">Year</text>
</g>
<!-- F3
Holiday_Flag -->
<g id="node5" class="node"><title>F3
Holiday_Flag</title>
<ellipse fill="#ff9c34" stroke="#f89939" cx="201.326" cy="-803.208" rx="54.3945" ry="24.0833"/>
<text text-anchor="middle" x="201.326" y="-806.608" font-family="Times New Roman,serif" font-size="12.00" fill="white">F3</text>
<text text-anchor="middle" x="201.326" y="-793.608" font-family="Times New Roman,serif" font-size="12.00" fill="white">Holiday_Flag</text>
</g>
<!-- F3
Holiday_Flag&#45;&gt;layer 0
neuron 3
cubic -->
<g id="edge8" class="edge"><title>F3
Holiday_Flag&#45;&gt;layer 0
neuron 3
cubic</title>
<path fill="none" stroke="#cde8ef" d="M205.451,-779.068C206.896,-770.961 208.539,-761.744 210.064,-753.187"/>
<polygon fill="#3499cd" stroke="#cde8ef" points="213.536,-753.654 211.845,-743.195 206.644,-752.425 213.536,-753.654"/>
</g>
<!-- layer 1
neuron 4
cubic -->
<g id="node17" class="node"><title>layer 1
neuron 4
cubic</title>
<polygon fill="#cde8ef" stroke="#cde8ef" points="136.326,-666.167 82.3259,-666.167 82.3259,-625.167 136.326,-625.167 136.326,-666.167"/>
<text text-anchor="middle" x="109.326" y="-654.167" font-family="Times New Roman,serif" font-size="10.00">layer 1</text>
<text text-anchor="middle" x="109.326" y="-643.167" font-family="Times New Roman,serif" font-size="10.00">neuron 4</text>
<text text-anchor="middle" x="109.326" y="-632.167" font-family="Times New Roman,serif" font-size="10.00">cubic</text>
</g>
<!-- F3
Holiday_Flag&#45;&gt;layer 1
neuron 4
cubic -->
<g id="edge18" class="edge"><title>F3
Holiday_Flag&#45;&gt;layer 1
neuron 4
cubic</title>
<path fill="none" stroke="#cde8ef" d="M159.886,-787.294C140.224,-777.881 118.607,-763.575 107.326,-743.167 96.1421,-722.935 97.5925,-696.485 101.308,-676.394"/>
<polygon fill="#3499cd" stroke="#cde8ef" points="104.748,-677.043 103.403,-666.534 97.9012,-675.589 104.748,-677.043"/>
</g>
<!-- F4
Temperature -->
<g id="node6" class="node"><title>F4
Temperature</title>
<ellipse fill="#ff9c34" stroke="#f89939" cx="52.3259" cy="-173.042" rx="52.1524" ry="24.0833"/>
<text text-anchor="middle" x="52.3259" y="-176.442" font-family="Times New Roman,serif" font-size="12.00" fill="white">F4</text>
<text text-anchor="middle" x="52.3259" y="-163.442" font-family="Times New Roman,serif" font-size="12.00" fill="white">Temperature</text>
</g>
<!-- layer 8
neuron 0
linear cov -->
<g id="node28" class="node"><title>layer 8
neuron 0
linear cov</title>
<polygon fill="#cde8ef" stroke="#cde8ef" points="129.326,-113 73.3259,-113 73.3259,-72 129.326,-72 129.326,-113"/>
<text text-anchor="middle" x="101.326" y="-101" font-family="Times New Roman,serif" font-size="10.00">layer 8</text>
<text text-anchor="middle" x="101.326" y="-90" font-family="Times New Roman,serif" font-size="10.00">neuron 0</text>
<text text-anchor="middle" x="101.326" y="-79" font-family="Times New Roman,serif" font-size="10.00">linear cov</text>
</g>
<!-- F4
Temperature&#45;&gt;layer 8
neuron 0
linear cov -->
<g id="edge40" class="edge"><title>F4
Temperature&#45;&gt;layer 8
neuron 0
linear cov</title>
<path fill="none" stroke="#cde8ef" d="M66.2363,-149.745C71.6824,-141.015 77.9931,-130.9 83.7485,-121.675"/>
<polygon fill="#3499cd" stroke="#cde8ef" points="86.7264,-123.514 89.05,-113.177 80.7874,-119.809 86.7264,-123.514"/>
</g>
<!-- F5
CPI -->
<g id="node7" class="node"><title>F5
CPI</title>
<ellipse fill="#ff9c34" stroke="#f89939" cx="454.326" cy="-803.208" rx="27" ry="24.0833"/>
<text text-anchor="middle" x="454.326" y="-806.608" font-family="Times New Roman,serif" font-size="12.00" fill="white">F5</text>
<text text-anchor="middle" x="454.326" y="-793.608" font-family="Times New Roman,serif" font-size="12.00" fill="white">CPI</text>
</g>
<!-- F5
CPI&#45;&gt;layer 0
neuron 0
quadratic -->
<g id="edge2" class="edge"><title>F5
CPI&#45;&gt;layer 0
neuron 0
quadratic</title>
<path fill="none" stroke="#cde8ef" d="M435.056,-785.934C422.781,-775.568 406.597,-761.9 392.52,-750.011"/>
<polygon fill="#3499cd" stroke="#cde8ef" points="394.418,-747.033 384.52,-743.255 389.902,-752.381 394.418,-747.033"/>
</g>
<!-- layer 4
neuron 0
linear cov -->
<g id="node23" class="node"><title>layer 4
neuron 0
linear cov</title>
<polygon fill="#cde8ef" stroke="#cde8ef" points="316.326,-435.167 260.326,-435.167 260.326,-394.167 316.326,-394.167 316.326,-435.167"/>
<text text-anchor="middle" x="288.326" y="-423.167" font-family="Times New Roman,serif" font-size="10.00">layer 4</text>
<text text-anchor="middle" x="288.326" y="-412.167" font-family="Times New Roman,serif" font-size="10.00">neuron 0</text>
<text text-anchor="middle" x="288.326" y="-401.167" font-family="Times New Roman,serif" font-size="10.00">linear cov</text>
</g>
<!-- F5
CPI&#45;&gt;layer 4
neuron 0
linear cov -->
<g id="edge30" class="edge"><title>F5
CPI&#45;&gt;layer 4
neuron 0
linear cov</title>
<path fill="none" stroke="#cde8ef" d="M454.326,-779.018C454.326,-748.624 454.326,-693.653 454.326,-646.667 454.326,-646.667 454.326,-646.667 454.326,-567.667 454.326,-517.855 433.757,-505.137 397.326,-471.167 373.204,-448.674 359.416,-450.945 325.618,-435.083"/>
<polygon fill="#3499cd" stroke="#cde8ef" points="327.093,-431.909 316.575,-430.634 324.003,-438.19 327.093,-431.909"/>
</g>
<!-- layer 4
neuron 1
linear cov -->
<g id="node24" class="node"><title>layer 4
neuron 1
linear cov</title>
<polygon fill="#cde8ef" stroke="#cde8ef" points="390.326,-435.167 334.326,-435.167 334.326,-394.167 390.326,-394.167 390.326,-435.167"/>
<text text-anchor="middle" x="362.326" y="-423.167" font-family="Times New Roman,serif" font-size="10.00">layer 4</text>
<text text-anchor="middle" x="362.326" y="-412.167" font-family="Times New Roman,serif" font-size="10.00">neuron 1</text>
<text text-anchor="middle" x="362.326" y="-401.167" font-family="Times New Roman,serif" font-size="10.00">linear cov</text>
</g>
<!-- F5
CPI&#45;&gt;layer 4
neuron 1
linear cov -->
<g id="edge32" class="edge"><title>F5
CPI&#45;&gt;layer 4
neuron 1
linear cov</title>
<path fill="none" stroke="#cde8ef" d="M463.139,-780.466C474.365,-750.762 492.326,-695.591 492.326,-646.667 492.326,-646.667 492.326,-646.667 492.326,-567.667 492.326,-523.471 495.636,-505.914 468.326,-471.167 451.142,-449.302 422.942,-435.128 399.947,-426.58"/>
<polygon fill="#3499cd" stroke="#cde8ef" points="401.053,-423.259 390.458,-423.255 398.738,-429.865 401.053,-423.259"/>
</g>
<!-- F6
Unemployment -->
<g id="node8" class="node"><title>F6
Unemployment</title>
<ellipse fill="#ff9c34" stroke="#f89939" cx="68.3259" cy="-803.208" rx="60.2083" ry="24.0833"/>
<text text-anchor="middle" x="68.3259" y="-806.608" font-family="Times New Roman,serif" font-size="12.00" fill="white">F6</text>
<text text-anchor="middle" x="68.3259" y="-793.608" font-family="Times New Roman,serif" font-size="12.00" fill="white">Unemployment</text>
</g>
<!-- F6
Unemployment&#45;&gt;layer 0
neuron 1
linear cov -->
<g id="edge4" class="edge"><title>F6
Unemployment&#45;&gt;layer 0
neuron 1
linear cov</title>
<path fill="none" stroke="#cde8ef" d="M113.491,-787.271C121.749,-784.56 130.293,-781.768 138.326,-779.167 185.631,-763.846 200.982,-763.519 250.91,-743.015"/>
<polygon fill="#3499cd" stroke="#cde8ef" points="252.414,-746.181 260.292,-739.097 249.715,-739.722 252.414,-746.181"/>
</g>
<!-- F6
Unemployment&#45;&gt;layer 0
neuron 2
quadratic -->
<g id="edge6" class="edge"><title>F6
Unemployment&#45;&gt;layer 0
neuron 2
quadratic</title>
<path fill="none" stroke="#cde8ef" d="M89.2176,-780.33C97.973,-771.161 108.242,-760.407 117.468,-750.746"/>
<polygon fill="#3499cd" stroke="#cde8ef" points="120.219,-752.933 124.594,-743.283 115.156,-748.098 120.219,-752.933"/>
</g>
<!-- layer 6
neuron 0
linear cov -->
<g id="node26" class="node"><title>layer 6
neuron 0
linear cov</title>
<polygon fill="#cde8ef" stroke="#cde8ef" points="216.326,-277.625 160.326,-277.625 160.326,-236.625 216.326,-236.625 216.326,-277.625"/>
<text text-anchor="middle" x="188.326" y="-265.625" font-family="Times New Roman,serif" font-size="10.00">layer 6</text>
<text text-anchor="middle" x="188.326" y="-254.625" font-family="Times New Roman,serif" font-size="10.00">neuron 0</text>
<text text-anchor="middle" x="188.326" y="-243.625" font-family="Times New Roman,serif" font-size="10.00">linear cov</text>
</g>
<!-- F6
Unemployment&#45;&gt;layer 6
neuron 0
linear cov -->
<g id="edge36" class="edge"><title>F6
Unemployment&#45;&gt;layer 6
neuron 0
linear cov</title>
<path fill="none" stroke="#cde8ef" d="M63.9686,-779.115C58.6415,-748.825 50.3259,-693.967 50.3259,-646.667 50.3259,-646.667 50.3259,-646.667 50.3259,-413.667 50.3259,-381.769 116.086,-319.79 156.817,-284.461"/>
<polygon fill="#3499cd" stroke="#cde8ef" points="159.302,-286.94 164.603,-277.767 154.738,-281.632 159.302,-286.94"/>
</g>
<!-- layer 1
neuron 0
quadratic -->
<g id="node13" class="node"><title>layer 1
neuron 0
quadratic</title>
<polygon fill="#cde8ef" stroke="#cde8ef" points="352.326,-666.167 298.326,-666.167 298.326,-625.167 352.326,-625.167 352.326,-666.167"/>
<text text-anchor="middle" x="325.326" y="-654.167" font-family="Times New Roman,serif" font-size="10.00">layer 1</text>
<text text-anchor="middle" x="325.326" y="-643.167" font-family="Times New Roman,serif" font-size="10.00">neuron 0</text>
<text text-anchor="middle" x="325.326" y="-632.167" font-family="Times New Roman,serif" font-size="10.00">quadratic</text>
</g>
<!-- layer 0
neuron 0
quadratic&#45;&gt;layer 1
neuron 0
quadratic -->
<g id="edge9" class="edge"><title>layer 0
neuron 0
quadratic&#45;&gt;layer 1
neuron 0
quadratic</title>
<path fill="none" stroke="#cde8ef" d="M351.867,-701.961C347.981,-693.866 343.404,-684.33 339.155,-675.477"/>
<polygon fill="#3499cd" stroke="#cde8ef" points="342.204,-673.741 334.721,-666.24 335.893,-676.77 342.204,-673.741"/>
</g>
<!-- layer 1
neuron 1
quadratic -->
<g id="node14" class="node"><title>layer 1
neuron 1
quadratic</title>
<polygon fill="#cde8ef" stroke="#cde8ef" points="280.326,-666.167 226.326,-666.167 226.326,-625.167 280.326,-625.167 280.326,-666.167"/>
<text text-anchor="middle" x="253.326" y="-654.167" font-family="Times New Roman,serif" font-size="10.00">layer 1</text>
<text text-anchor="middle" x="253.326" y="-643.167" font-family="Times New Roman,serif" font-size="10.00">neuron 1</text>
<text text-anchor="middle" x="253.326" y="-632.167" font-family="Times New Roman,serif" font-size="10.00">quadratic</text>
</g>
<!-- layer 0
neuron 0
quadratic&#45;&gt;layer 1
neuron 1
quadratic -->
<g id="edge11" class="edge"><title>layer 0
neuron 0
quadratic&#45;&gt;layer 1
neuron 1
quadratic</title>
<path fill="none" stroke="#cde8ef" d="M334.073,-702.741C320.387,-693.237 303.634,-681.603 288.943,-671.401"/>
<polygon fill="#3499cd" stroke="#cde8ef" points="290.78,-668.415 280.57,-665.586 286.787,-674.165 290.78,-668.415"/>
</g>
<!-- layer 1
neuron 2
quadratic -->
<g id="node15" class="node"><title>layer 1
neuron 2
quadratic</title>
<polygon fill="#cde8ef" stroke="#cde8ef" points="208.326,-666.167 154.326,-666.167 154.326,-625.167 208.326,-625.167 208.326,-666.167"/>
<text text-anchor="middle" x="181.326" y="-654.167" font-family="Times New Roman,serif" font-size="10.00">layer 1</text>
<text text-anchor="middle" x="181.326" y="-643.167" font-family="Times New Roman,serif" font-size="10.00">neuron 2</text>
<text text-anchor="middle" x="181.326" y="-632.167" font-family="Times New Roman,serif" font-size="10.00">quadratic</text>
</g>
<!-- layer 0
neuron 0
quadratic&#45;&gt;layer 1
neuron 2
quadratic -->
<g id="edge13" class="edge"><title>layer 0
neuron 0
quadratic&#45;&gt;layer 1
neuron 2
quadratic</title>
<path fill="none" stroke="#cde8ef" d="M334.054,-706.256C331.142,-704.803 328.195,-703.411 325.326,-702.167 281.624,-683.22 265.631,-685.878 217.894,-666.051"/>
<polygon fill="#3499cd" stroke="#cde8ef" points="219.168,-662.789 208.598,-662.077 216.417,-669.226 219.168,-662.789"/>
</g>
<!-- layer 0
neuron 0
quadratic&#45;&gt;layer 1
neuron 3
linear cov -->
<g id="edge15" class="edge"><title>layer 0
neuron 0
quadratic&#45;&gt;layer 1
neuron 3
linear cov</title>
<path fill="none" stroke="#cde8ef" d="M371.047,-701.961C375.041,-693.866 379.745,-684.33 384.113,-675.477"/>
<polygon fill="#3499cd" stroke="#cde8ef" points="387.384,-676.757 388.67,-666.24 381.106,-673.66 387.384,-676.757"/>
</g>
<!-- layer 0
neuron 0
quadratic&#45;&gt;layer 1
neuron 4
cubic -->
<g id="edge17" class="edge"><title>layer 0
neuron 0
quadratic&#45;&gt;layer 1
neuron 4
cubic</title>
<path fill="none" stroke="#cde8ef" d="M334.202,-705.884C331.261,-704.504 328.267,-703.23 325.326,-702.167 251.599,-675.512 224.201,-692.455 146.217,-665.908"/>
<polygon fill="#3499cd" stroke="#cde8ef" points="147.045,-662.488 136.45,-662.449 144.708,-669.086 147.045,-662.488"/>
</g>
<!-- layer 0
neuron 1
linear cov&#45;&gt;layer 1
neuron 0
quadratic -->
<g id="edge10" class="edge"><title>layer 0
neuron 1
linear cov&#45;&gt;layer 1
neuron 0
quadratic</title>
<path fill="none" stroke="#cde8ef" d="M298.047,-701.961C302.041,-693.866 306.745,-684.33 311.113,-675.477"/>
<polygon fill="#3499cd" stroke="#cde8ef" points="314.384,-676.757 315.67,-666.24 308.106,-673.66 314.384,-676.757"/>
</g>
<!-- layer 0
neuron 2
quadratic&#45;&gt;layer 1
neuron 2
quadratic -->
<g id="edge14" class="edge"><title>layer 0
neuron 2
quadratic&#45;&gt;layer 1
neuron 2
quadratic</title>
<path fill="none" stroke="#cde8ef" d="M153.31,-701.961C157.455,-693.779 162.346,-684.126 166.872,-675.195"/>
<polygon fill="#3499cd" stroke="#cde8ef" points="170.011,-676.743 171.409,-666.24 163.767,-673.579 170.011,-676.743"/>
</g>
<!-- layer 0
neuron 3
cubic&#45;&gt;layer 1
neuron 1
quadratic -->
<g id="edge12" class="edge"><title>layer 0
neuron 3
cubic&#45;&gt;layer 1
neuron 1
quadratic</title>
<path fill="none" stroke="#cde8ef" d="M225.31,-701.961C229.455,-693.779 234.346,-684.126 238.872,-675.195"/>
<polygon fill="#3499cd" stroke="#cde8ef" points="242.011,-676.743 243.409,-666.24 235.767,-673.579 242.011,-676.743"/>
</g>
<!-- layer 2
neuron 1
quadratic -->
<g id="node19" class="node"><title>layer 2
neuron 1
quadratic</title>
<polygon fill="#cde8ef" stroke="#cde8ef" points="316.326,-589.167 262.326,-589.167 262.326,-548.167 316.326,-548.167 316.326,-589.167"/>
<text text-anchor="middle" x="289.326" y="-577.167" font-family="Times New Roman,serif" font-size="10.00">layer 2</text>
<text text-anchor="middle" x="289.326" y="-566.167" font-family="Times New Roman,serif" font-size="10.00">neuron 1</text>
<text text-anchor="middle" x="289.326" y="-555.167" font-family="Times New Roman,serif" font-size="10.00">quadratic</text>
</g>
<!-- layer 1
neuron 0
quadratic&#45;&gt;layer 2
neuron 1
quadratic -->
<g id="edge21" class="edge"><title>layer 1
neuron 0
quadratic&#45;&gt;layer 2
neuron 1
quadratic</title>
<path fill="none" stroke="#cde8ef" d="M315.867,-624.961C311.981,-616.866 307.404,-607.33 303.155,-598.477"/>
<polygon fill="#3499cd" stroke="#cde8ef" points="306.204,-596.741 298.721,-589.24 299.893,-599.77 306.204,-596.741"/>
</g>
<!-- layer 2
neuron 2
quadratic -->
<g id="node20" class="node"><title>layer 2
neuron 2
quadratic</title>
<polygon fill="#cde8ef" stroke="#cde8ef" points="388.326,-589.167 334.326,-589.167 334.326,-548.167 388.326,-548.167 388.326,-589.167"/>
<text text-anchor="middle" x="361.326" y="-577.167" font-family="Times New Roman,serif" font-size="10.00">layer 2</text>
<text text-anchor="middle" x="361.326" y="-566.167" font-family="Times New Roman,serif" font-size="10.00">neuron 2</text>
<text text-anchor="middle" x="361.326" y="-555.167" font-family="Times New Roman,serif" font-size="10.00">quadratic</text>
</g>
<!-- layer 1
neuron 0
quadratic&#45;&gt;layer 2
neuron 2
quadratic -->
<g id="edge23" class="edge"><title>layer 1
neuron 0
quadratic&#45;&gt;layer 2
neuron 2
quadratic</title>
<path fill="none" stroke="#cde8ef" d="M334.784,-624.961C338.67,-616.866 343.248,-607.33 347.497,-598.477"/>
<polygon fill="#3499cd" stroke="#cde8ef" points="350.758,-599.77 351.93,-589.24 344.448,-596.741 350.758,-599.77"/>
</g>
<!-- layer 1
neuron 1
quadratic&#45;&gt;layer 2
neuron 1
quadratic -->
<g id="edge22" class="edge"><title>layer 1
neuron 1
quadratic&#45;&gt;layer 2
neuron 1
quadratic</title>
<path fill="none" stroke="#cde8ef" d="M262.784,-624.961C266.67,-616.866 271.248,-607.33 275.497,-598.477"/>
<polygon fill="#3499cd" stroke="#cde8ef" points="278.758,-599.77 279.93,-589.24 272.448,-596.741 278.758,-599.77"/>
</g>
<!-- layer 2
neuron 0
quadratic -->
<g id="node18" class="node"><title>layer 2
neuron 0
quadratic</title>
<polygon fill="#cde8ef" stroke="#cde8ef" points="208.326,-589.167 154.326,-589.167 154.326,-548.167 208.326,-548.167 208.326,-589.167"/>
<text text-anchor="middle" x="181.326" y="-577.167" font-family="Times New Roman,serif" font-size="10.00">layer 2</text>
<text text-anchor="middle" x="181.326" y="-566.167" font-family="Times New Roman,serif" font-size="10.00">neuron 0</text>
<text text-anchor="middle" x="181.326" y="-555.167" font-family="Times New Roman,serif" font-size="10.00">quadratic</text>
</g>
<!-- layer 1
neuron 2
quadratic&#45;&gt;layer 2
neuron 0
quadratic -->
<g id="edge19" class="edge"><title>layer 1
neuron 2
quadratic&#45;&gt;layer 2
neuron 0
quadratic</title>
<path fill="none" stroke="#cde8ef" d="M181.326,-624.961C181.326,-617.124 181.326,-607.937 181.326,-599.327"/>
<polygon fill="#3499cd" stroke="#cde8ef" points="184.826,-599.24 181.326,-589.24 177.826,-599.24 184.826,-599.24"/>
</g>
<!-- layer 1
neuron 3
linear cov&#45;&gt;layer 2
neuron 2
quadratic -->
<g id="edge24" class="edge"><title>layer 1
neuron 3
linear cov&#45;&gt;layer 2
neuron 2
quadratic</title>
<path fill="none" stroke="#cde8ef" d="M388.605,-624.961C384.611,-616.866 379.906,-607.33 375.539,-598.477"/>
<polygon fill="#3499cd" stroke="#cde8ef" points="378.545,-596.66 370.982,-589.24 372.268,-599.757 378.545,-596.66"/>
</g>
<!-- layer 1
neuron 4
cubic&#45;&gt;layer 2
neuron 0
quadratic -->
<g id="edge20" class="edge"><title>layer 1
neuron 4
cubic&#45;&gt;layer 2
neuron 0
quadratic</title>
<path fill="none" stroke="#cde8ef" d="M128.243,-624.961C136.594,-616.263 146.541,-605.901 155.554,-596.512"/>
<polygon fill="#3499cd" stroke="#cde8ef" points="158.135,-598.878 162.535,-589.24 153.085,-594.03 158.135,-598.878"/>
</g>
<!-- layer 3
neuron 0
quadratic -->
<g id="node21" class="node"><title>layer 3
neuron 0
quadratic</title>
<polygon fill="#cde8ef" stroke="#cde8ef" points="315.326,-512.167 261.326,-512.167 261.326,-471.167 315.326,-471.167 315.326,-512.167"/>
<text text-anchor="middle" x="288.326" y="-500.167" font-family="Times New Roman,serif" font-size="10.00">layer 3</text>
<text text-anchor="middle" x="288.326" y="-489.167" font-family="Times New Roman,serif" font-size="10.00">neuron 0</text>
<text text-anchor="middle" x="288.326" y="-478.167" font-family="Times New Roman,serif" font-size="10.00">quadratic</text>
</g>
<!-- layer 2
neuron 0
quadratic&#45;&gt;layer 3
neuron 0
quadratic -->
<g id="edge25" class="edge"><title>layer 2
neuron 0
quadratic&#45;&gt;layer 3
neuron 0
quadratic</title>
<path fill="none" stroke="#cde8ef" d="M208.327,-548.741C221.782,-539.309 238.23,-527.781 252.705,-517.635"/>
<polygon fill="#3499cd" stroke="#cde8ef" points="254.782,-520.453 260.962,-511.847 250.764,-514.721 254.782,-520.453"/>
</g>
<!-- layer 3
neuron 1
quadratic -->
<g id="node22" class="node"><title>layer 3
neuron 1
quadratic</title>
<polygon fill="#cde8ef" stroke="#cde8ef" points="388.326,-512.167 334.326,-512.167 334.326,-471.167 388.326,-471.167 388.326,-512.167"/>
<text text-anchor="middle" x="361.326" y="-500.167" font-family="Times New Roman,serif" font-size="10.00">layer 3</text>
<text text-anchor="middle" x="361.326" y="-489.167" font-family="Times New Roman,serif" font-size="10.00">neuron 1</text>
<text text-anchor="middle" x="361.326" y="-478.167" font-family="Times New Roman,serif" font-size="10.00">quadratic</text>
</g>
<!-- layer 2
neuron 1
quadratic&#45;&gt;layer 3
neuron 1
quadratic -->
<g id="edge27" class="edge"><title>layer 2
neuron 1
quadratic&#45;&gt;layer 3
neuron 1
quadratic</title>
<path fill="none" stroke="#cde8ef" d="M308.243,-547.961C316.594,-539.263 326.541,-528.901 335.554,-519.512"/>
<polygon fill="#3499cd" stroke="#cde8ef" points="338.135,-521.878 342.535,-512.24 333.085,-517.03 338.135,-521.878"/>
</g>
<!-- layer 2
neuron 2
quadratic&#45;&gt;layer 3
neuron 0
quadratic -->
<g id="edge26" class="edge"><title>layer 2
neuron 2
quadratic&#45;&gt;layer 3
neuron 0
quadratic</title>
<path fill="none" stroke="#cde8ef" d="M342.146,-547.961C333.68,-539.263 323.594,-528.901 314.455,-519.512"/>
<polygon fill="#3499cd" stroke="#cde8ef" points="316.861,-516.965 307.378,-512.24 311.845,-521.847 316.861,-516.965"/>
</g>
<!-- layer 2
neuron 2
quadratic&#45;&gt;layer 3
neuron 1
quadratic -->
<g id="edge28" class="edge"><title>layer 2
neuron 2
quadratic&#45;&gt;layer 3
neuron 1
quadratic</title>
<path fill="none" stroke="#cde8ef" d="M361.326,-547.961C361.326,-540.124 361.326,-530.937 361.326,-522.327"/>
<polygon fill="#3499cd" stroke="#cde8ef" points="364.826,-522.24 361.326,-512.24 357.826,-522.24 364.826,-522.24"/>
</g>
<!-- layer 3
neuron 0
quadratic&#45;&gt;layer 4
neuron 0
linear cov -->
<g id="edge29" class="edge"><title>layer 3
neuron 0
quadratic&#45;&gt;layer 4
neuron 0
linear cov</title>
<path fill="none" stroke="#cde8ef" d="M288.326,-470.961C288.326,-463.124 288.326,-453.937 288.326,-445.327"/>
<polygon fill="#3499cd" stroke="#cde8ef" points="291.826,-445.24 288.326,-435.24 284.826,-445.24 291.826,-445.24"/>
</g>
<!-- layer 3
neuron 1
quadratic&#45;&gt;layer 4
neuron 1
linear cov -->
<g id="edge31" class="edge"><title>layer 3
neuron 1
quadratic&#45;&gt;layer 4
neuron 1
linear cov</title>
<path fill="none" stroke="#cde8ef" d="M361.589,-470.961C361.693,-463.124 361.816,-453.937 361.93,-445.327"/>
<polygon fill="#3499cd" stroke="#cde8ef" points="365.431,-445.286 362.065,-435.24 358.432,-445.193 365.431,-445.286"/>
</g>
<!-- layer 5
neuron 0
quadratic -->
<g id="node25" class="node"><title>layer 5
neuron 0
quadratic</title>
<polygon fill="#cde8ef" stroke="#cde8ef" points="315.326,-358.167 261.326,-358.167 261.326,-317.167 315.326,-317.167 315.326,-358.167"/>
<text text-anchor="middle" x="288.326" y="-346.167" font-family="Times New Roman,serif" font-size="10.00">layer 5</text>
<text text-anchor="middle" x="288.326" y="-335.167" font-family="Times New Roman,serif" font-size="10.00">neuron 0</text>
<text text-anchor="middle" x="288.326" y="-324.167" font-family="Times New Roman,serif" font-size="10.00">quadratic</text>
</g>
<!-- layer 4
neuron 0
linear cov&#45;&gt;layer 5
neuron 0
quadratic -->
<g id="edge33" class="edge"><title>layer 4
neuron 0
linear cov&#45;&gt;layer 5
neuron 0
quadratic</title>
<path fill="none" stroke="#cde8ef" d="M288.326,-393.961C288.326,-386.124 288.326,-376.937 288.326,-368.327"/>
<polygon fill="#3499cd" stroke="#cde8ef" points="291.826,-368.24 288.326,-358.24 284.826,-368.24 291.826,-368.24"/>
</g>
<!-- layer 4
neuron 1
linear cov&#45;&gt;layer 5
neuron 0
quadratic -->
<g id="edge34" class="edge"><title>layer 4
neuron 1
linear cov&#45;&gt;layer 5
neuron 0
quadratic</title>
<path fill="none" stroke="#cde8ef" d="M342.883,-393.961C334.301,-385.263 324.078,-374.901 314.813,-365.512"/>
<polygon fill="#3499cd" stroke="#cde8ef" points="317.154,-362.9 307.639,-358.24 312.171,-367.817 317.154,-362.9"/>
</g>
<!-- layer 5
neuron 0
quadratic&#45;&gt;layer 6
neuron 0
linear cov -->
<g id="edge35" class="edge"><title>layer 5
neuron 0
quadratic&#45;&gt;layer 6
neuron 0
linear cov</title>
<path fill="none" stroke="#cde8ef" d="M263.35,-317.05C250.702,-307.116 235.177,-294.922 221.537,-284.209"/>
<polygon fill="#3499cd" stroke="#cde8ef" points="223.357,-281.188 213.33,-277.764 219.033,-286.693 223.357,-281.188"/>
</g>
<!-- layer 6
neuron 0
linear cov&#45;&gt;layer 7
neuron 0
linear cov -->
<g id="edge37" class="edge"><title>layer 6
neuron 0
linear cov&#45;&gt;layer 7
neuron 0
linear cov</title>
<path fill="none" stroke="#cde8ef" d="M179.127,-236.255C174.506,-226.273 168.82,-213.991 163.724,-202.984"/>
<polygon fill="#3499cd" stroke="#cde8ef" points="166.817,-201.333 159.44,-193.729 160.465,-204.274 166.817,-201.333"/>
</g>
<!-- layer 7
neuron 0
linear cov&#45;&gt;layer 8
neuron 0
linear cov -->
<g id="edge39" class="edge"><title>layer 7
neuron 0
linear cov&#45;&gt;layer 8
neuron 0
linear cov</title>
<path fill="none" stroke="#cde8ef" d="M137.961,-152.222C132.172,-142.943 125.174,-131.726 118.852,-121.592"/>
<polygon fill="#3499cd" stroke="#cde8ef" points="121.78,-119.673 113.517,-113.041 115.841,-123.378 121.78,-119.673"/>
</g>
<!-- layer 8
neuron 0
linear cov&#45;&gt;OUTPUT -->
<g id="edge41" class="edge"><title>layer 8
neuron 0
linear cov&#45;&gt;OUTPUT</title>
<path fill="none" stroke="#cde8ef" d="M101.326,-71.6891C101.326,-63.9066 101.326,-54.8417 101.326,-46.4471"/>
<polygon fill="#3499cd" stroke="#cde8ef" points="104.826,-46.3194 101.326,-36.3195 97.826,-46.3195 104.826,-46.3194"/>
</g>
</g>
</svg>
